<?xml version="1.0" encoding="UTF-8"?>
<!DOCTYPE svg PUBLIC "-//W3C//DTD SVG 1.1//EN" "http://www.w3.org/Graphics/SVG/1.1/DTD/svg11.dtd">
<svg xmlns="http://www.w3.org/2000/svg" version="1.1" width="400px" height="400px" style="shape-rendering:geometricPrecision; text-rendering:geometricPrecision; image-rendering:optimizeQuality; fill-rule:evenodd; clip-rule:evenodd" xmlns:xlink="http://www.w3.org/1999/xlink">
<g><path style="opacity:0.02" fill="#fefffe" d="M 8.5,-0.5 C 8.83333,-0.5 9.16667,-0.5 9.5,-0.5C 9.31468,0.170143 8.98135,0.170143 8.5,-0.5 Z"/></g>
<g><path style="opacity:0.996" fill="#fefefe" d="M 14.5,-0.5 C 16.5,-0.5 18.5,-0.5 20.5,-0.5C 20.5,0.5 20.5,1.5 20.5,2.5C 140.167,2.66667 259.834,2.5 379.5,2C 378.402,1.23029 378.402,0.396953 379.5,-0.5C 381.5,-0.5 383.5,-0.5 385.5,-0.5C 391.424,2.42206 396.091,6.7554 399.5,12.5C 399.5,137.5 399.5,262.5 399.5,387.5C 397.241,392.76 393.575,396.76 388.5,399.5C 263.167,399.5 137.833,399.5 12.5,399.5C 10.2615,398.458 8.09481,397.125 6,395.5C 4.0548,391.922 1.88813,388.588 -0.5,385.5C -0.5,308.167 -0.5,230.833 -0.5,153.5C 0.396953,154.598 1.23029,154.598 2,153.5C 2.66667,109.5 2.66667,65.5 2,21.5C 1.23029,20.4019 0.396953,20.4019 -0.5,21.5C -0.5,19.1667 -0.5,16.8333 -0.5,14.5C 1.36364,12.4919 3.03031,10.1585 4.5,7.5C 7.6818,4.49924 11.0151,1.83258 14.5,-0.5 Z"/></g>
<g><path style="opacity:0.925" fill="#fcf6f1" d="M 20.5,-0.5 C 140.167,-0.5 259.833,-0.5 379.5,-0.5C 378.402,0.396953 378.402,1.23029 379.5,2C 259.834,2.5 140.167,2.66667 20.5,2.5C 20.5,1.5 20.5,0.5 20.5,-0.5 Z"/></g>
<g><path style="opacity:0.824" fill="#fcf6f3" d="M -0.5,153.5 C -0.5,109.5 -0.5,65.5 -0.5,21.5C 0.396953,20.4019 1.23029,20.4019 2,21.5C 2.66667,65.5 2.66667,109.5 2,153.5C 1.23029,154.598 0.396953,154.598 -0.5,153.5 Z"/></g>
<g><path style="opacity:1" fill="#ffe1ac" d="M 290.5,59.5 C 284.167,59.5 277.833,59.5 271.5,59.5C 271.167,59.5 270.833,59.5 270.5,59.5C 273.695,57.9704 277.195,57.3037 281,57.5C 283.5,57.6667 286,57.8333 288.5,58C 289.416,58.2784 290.082,58.7784 290.5,59.5 Z"/></g>
<g><path style="opacity:1" fill="#d9d9d9" d="M 252.5,62.5 C 250.167,62.5 247.833,62.5 245.5,62.5C 245.167,62.5 244.833,62.5 244.5,62.5C 244.5,61.8333 244.167,61.5 243.5,61.5C 233.681,60.506 223.681,60.1726 213.5,60.5C 192.259,60.3937 170.925,60.5604 149.5,61C 145.873,62.3227 142.207,63.4894 138.5,64.5C 140.48,62.5486 142.813,61.0486 145.5,60C 148.234,59.7896 150.734,58.9563 153,57.5C 184.03,57.2051 215.197,58.0384 246.5,60C 248.502,61.0192 250.502,61.8525 252.5,62.5 Z"/></g>
<g><path style="opacity:1" fill="#ffb63f" d="M 271.5,60.5 C 271.5,60.1667 271.5,59.8333 271.5,59.5C 277.833,59.5 284.167,59.5 290.5,59.5C 290.833,59.5 291.167,59.5 291.5,59.5C 292.287,61.1042 293.62,61.7709 295.5,61.5C 296.694,62.2719 297.694,63.2719 298.5,64.5C 289.924,60.8498 280.924,59.5164 271.5,60.5 Z"/></g>
<g><path style="opacity:1" fill="#9d9d9d" d="M 213.5,60.5 C 223.681,60.1726 233.681,60.506 243.5,61.5C 234.105,60.8623 225.105,61.5289 216.5,63.5C 214.81,63.1436 213.81,62.1436 213.5,60.5 Z"/></g>
<g><path style="opacity:1" fill="#ffd99a" d="M 291.5,59.5 C 293.38,59.2291 294.713,59.8958 295.5,61.5C 293.62,61.7709 292.287,61.1042 291.5,59.5 Z"/></g>
<g><path style="opacity:1" fill="#737373" d="M 243.5,61.5 C 244.167,61.5 244.5,61.8333 244.5,62.5C 235.827,62.3336 227.16,62.5002 218.5,63C 219.858,63.9344 221.192,64.7677 222.5,65.5C 222.833,66.1667 223.167,66.8333 223.5,67.5C 221.031,66.4314 218.698,65.0981 216.5,63.5C 225.105,61.5289 234.105,60.8623 243.5,61.5 Z"/></g>
<g><path style="opacity:1" fill="#ffdb9f" d="M 295.5,61.5 C 297.933,61.2729 299.599,62.2729 300.5,64.5C 299.833,64.5 299.167,64.5 298.5,64.5C 297.694,63.2719 296.694,62.2719 295.5,61.5 Z"/></g>
<g><path style="opacity:1" fill="#d1d1d1" d="M 213.5,60.5 C 213.81,62.1436 214.81,63.1436 216.5,63.5C 218.698,65.0981 221.031,66.4314 223.5,67.5C 228.996,71.487 233.163,76.487 236,82.5C 237.965,85.4905 240.132,88.1572 242.5,90.5C 241.425,91.7134 240.759,93.2134 240.5,95C 241.678,98.868 241.678,102.701 240.5,106.5C 231.5,106.5 222.5,106.5 213.5,106.5C 213.586,101.016 211.753,96.3492 208,92.5C 206.234,91.7665 204.401,91.4332 202.5,91.5C 204.41,90.316 204.743,88.816 203.5,87C 191.505,86.5001 179.505,86.3335 167.5,86.5C 165.62,86.2291 164.287,86.8958 163.5,88.5C 162.833,89.5 162.167,90.5 161.5,91.5C 161.762,90.0222 161.429,88.6888 160.5,87.5C 154.086,89.4149 148.919,93.0815 145,98.5C 144.503,101.146 144.336,103.813 144.5,106.5C 134.773,105.861 125.44,106.528 116.5,108.5C 116.5,108.833 116.5,109.167 116.5,109.5C 116.167,109.5 115.833,109.5 115.5,109.5C 115.5,109.167 115.5,108.833 115.5,108.5C 113.743,88.7484 121.41,74.0817 138.5,64.5C 142.207,63.4894 145.873,62.3227 149.5,61C 170.925,60.5604 192.259,60.3937 213.5,60.5 Z"/></g>
<g><path style="opacity:1" fill="#434445" d="M 244.5,62.5 C 244.833,62.5 245.167,62.5 245.5,62.5C 245.611,63.1174 245.944,63.6174 246.5,64C 238.467,64.2632 230.467,64.7632 222.5,65.5C 221.192,64.7677 219.858,63.9344 218.5,63C 227.16,62.5002 235.827,62.3336 244.5,62.5 Z"/></g>
<g><path style="opacity:1" fill="#ffd590" d="M 270.5,59.5 C 270.833,59.5 271.167,59.5 271.5,59.5C 271.5,59.8333 271.5,60.1667 271.5,60.5C 267.443,61.63 263.443,62.9633 259.5,64.5C 262.698,61.8752 266.365,60.2085 270.5,59.5 Z"/></g>
<g><path style="opacity:1" fill="#fea909" d="M 271.5,60.5 C 280.924,59.5164 289.924,60.8498 298.5,64.5C 299.167,64.5 299.833,64.5 300.5,64.5C 300.973,65.9063 301.973,66.573 303.5,66.5C 304.167,66.5 304.5,66.8333 304.5,67.5C 305.167,68.5 305.833,69.5 306.5,70.5C 306.341,73.1871 307.175,75.5204 309,77.5C 309.667,82.1667 309.667,86.8333 309,91.5C 306.883,97.9084 304.05,103.908 300.5,109.5C 282.5,109.5 264.5,109.5 246.5,109.5C 246.737,108.209 246.404,107.209 245.5,106.5C 244.732,105.737 244.232,104.737 244,103.5C 243.501,99.1794 243.334,94.8461 243.5,90.5C 243.448,88.0971 243.781,85.7638 244.5,83.5C 246.048,83.1788 246.715,82.1788 246.5,80.5C 246.5,80.1667 246.5,79.8333 246.5,79.5C 247.5,79.5 248.5,79.5 249.5,79.5C 249.4,76.8915 250.067,74.5582 251.5,72.5C 253.167,71.5 254.5,70.1667 255.5,68.5C 256.708,67.7659 258.041,67.4326 259.5,67.5C 259.5,66.5 259.5,65.5 259.5,64.5C 263.443,62.9633 267.443,61.63 271.5,60.5 Z"/></g>
<g><path style="opacity:1" fill="#ffd694" d="M 300.5,64.5 C 302.027,64.427 303.027,65.0937 303.5,66.5C 301.973,66.573 300.973,65.9063 300.5,64.5 Z"/></g>
<g><path style="opacity:1" fill="#5b5c5d" d="M 245.5,62.5 C 247.833,62.5 250.167,62.5 252.5,62.5C 254.332,63.2485 255.999,64.2485 257.5,65.5C 256.449,66.2223 255.782,67.2223 255.5,68.5C 253.167,68.8333 251.833,70.1667 251.5,72.5C 248.939,74.1505 247.273,76.4838 246.5,79.5C 246.5,79.8333 246.5,80.1667 246.5,80.5C 245.094,80.9731 244.427,81.9731 244.5,83.5C 243.781,85.7638 243.448,88.0971 243.5,90.5C 243.167,90.5 242.833,90.5 242.5,90.5C 240.132,88.1572 237.965,85.4905 236,82.5C 233.163,76.487 228.996,71.487 223.5,67.5C 223.167,66.8333 222.833,66.1667 222.5,65.5C 230.467,64.7632 238.467,64.2632 246.5,64C 245.944,63.6174 245.611,63.1174 245.5,62.5 Z"/></g>
<g><path style="opacity:1" fill="#d8963a" d="M 259.5,64.5 C 259.5,65.5 259.5,66.5 259.5,67.5C 258.041,67.4326 256.708,67.7659 255.5,68.5C 255.782,67.2223 256.449,66.2223 257.5,65.5C 258.167,65.1667 258.833,64.8333 259.5,64.5 Z"/></g>
<g><path style="opacity:1" fill="#fcd9a0" d="M 304.5,67.5 C 306.5,67.5 307.5,68.5 307.5,70.5C 307.167,70.5 306.833,70.5 306.5,70.5C 305.833,69.5 305.167,68.5 304.5,67.5 Z"/></g>
<g><path style="opacity:1" fill="#a27d42" d="M 255.5,68.5 C 254.5,70.1667 253.167,71.5 251.5,72.5C 251.833,70.1667 253.167,68.8333 255.5,68.5 Z"/></g>
<g><path style="opacity:1" fill="#ebc28c" d="M 311.5,75.5 C 313.048,75.8212 313.715,76.8212 313.5,78.5C 312.094,78.0269 311.427,77.0269 311.5,75.5 Z"/></g>
<g><path style="opacity:1" fill="#c99130" d="M 251.5,72.5 C 250.067,74.5582 249.4,76.8915 249.5,79.5C 248.5,79.5 247.5,79.5 246.5,79.5C 247.273,76.4838 248.939,74.1505 251.5,72.5 Z"/></g>
<g><path style="opacity:1" fill="#947645" d="M 246.5,80.5 C 246.715,82.1788 246.048,83.1788 244.5,83.5C 244.427,81.9731 245.094,80.9731 246.5,80.5 Z"/></g>
<g><path style="opacity:1" fill="#eec998" d="M 313.5,79.5 C 315.975,80.6874 316.975,82.6874 316.5,85.5C 315.508,83.5439 314.508,81.5439 313.5,79.5 Z"/></g>
<g><path style="opacity:1" fill="#a7a7a7" d="M 167.5,86.5 C 179.505,86.3335 191.505,86.5001 203.5,87C 204.743,88.816 204.41,90.316 202.5,91.5C 198.498,92.6038 194.831,94.2705 191.5,96.5C 191.737,97.791 191.404,98.791 190.5,99.5C 190.5,98.1667 190.5,96.8333 190.5,95.5C 192.619,95.5323 193.952,94.5323 194.5,92.5C 196.742,91.3519 199.076,90.3519 201.5,89.5C 200.675,88.6143 199.675,88.281 198.5,88.5C 188.167,87.8333 177.833,87.1667 167.5,86.5 Z"/></g>
<g><path style="opacity:1" fill="#d27a0a" d="M 306.5,70.5 C 306.833,70.5 307.167,70.5 307.5,70.5C 308.916,72.1793 310.25,73.8459 311.5,75.5C 311.427,77.0269 312.094,78.0269 313.5,78.5C 313.5,78.8333 313.5,79.1667 313.5,79.5C 314.508,81.5439 315.508,83.5439 316.5,85.5C 316.5,85.8333 316.5,86.1667 316.5,86.5C 316.705,92.8778 316.372,99.2111 315.5,105.5C 315.296,107.685 314.63,109.685 313.5,111.5C 312.833,111.5 312.5,111.167 312.5,110.5C 312.631,109.761 312.464,109.094 312,108.5C 308.27,109.46 304.437,109.793 300.5,109.5C 304.05,103.908 306.883,97.9084 309,91.5C 309.667,86.8333 309.667,82.1667 309,77.5C 307.175,75.5204 306.341,73.1871 306.5,70.5 Z"/></g>
<g><path style="opacity:1" fill="#faf9f9" d="M 161.5,91.5 C 160.985,93.8945 160.319,96.2278 159.5,98.5C 158.521,101.625 158.187,104.958 158.5,108.5C 153.833,108.5 149.167,108.5 144.5,108.5C 144.5,107.833 144.5,107.167 144.5,106.5C 144.336,103.813 144.503,101.146 145,98.5C 148.919,93.0815 154.086,89.4149 160.5,87.5C 161.429,88.6888 161.762,90.0222 161.5,91.5 Z"/></g>
<g><path style="opacity:1" fill="#737474" d="M 167.5,86.5 C 177.833,87.1667 188.167,87.8333 198.5,88.5C 186.833,88.5 175.167,88.5 163.5,88.5C 164.287,86.8958 165.62,86.2291 167.5,86.5 Z"/></g>
<g><path style="opacity:1" fill="#4f4f50" d="M 163.5,88.5 C 175.167,88.5 186.833,88.5 198.5,88.5C 199.675,88.281 200.675,88.6143 201.5,89.5C 199.076,90.3519 196.742,91.3519 194.5,92.5C 184.868,91.412 175.201,91.2453 165.5,92C 164.851,94.4808 163.851,94.8141 162.5,93C 163.38,91.6439 163.714,90.1439 163.5,88.5 Z"/></g>
<g><path style="opacity:1" fill="#5d5c5d" d="M 163.5,88.5 C 163.714,90.1439 163.38,91.6439 162.5,93C 163.851,94.8141 164.851,94.4808 165.5,92C 175.201,91.2453 184.868,91.412 194.5,92.5C 193.952,94.5323 192.619,95.5323 190.5,95.5C 190.5,96.8333 190.5,98.1667 190.5,99.5C 189.833,100.167 189.167,100.833 188.5,101.5C 187.007,103.902 186.007,106.569 185.5,109.5C 176.833,109.5 168.167,109.5 159.5,109.5C 159.5,109.167 159.5,108.833 159.5,108.5C 167.86,108.831 176.193,108.498 184.5,107.5C 176.108,106.199 167.775,106.199 159.5,107.5C 159.5,104.5 159.5,101.5 159.5,98.5C 160.319,96.2278 160.985,93.8945 161.5,91.5C 162.167,90.5 162.833,89.5 163.5,88.5 Z"/></g>
<g><path style="opacity:1" fill="#fcfbfb" d="M 202.5,91.5 C 204.401,91.4332 206.234,91.7665 208,92.5C 211.753,96.3492 213.586,101.016 213.5,106.5C 213.167,107.167 212.833,107.833 212.5,108.5C 204.5,108.5 196.5,108.5 188.5,108.5C 188.5,106.167 188.5,103.833 188.5,101.5C 189.167,100.833 189.833,100.167 190.5,99.5C 191.404,98.791 191.737,97.791 191.5,96.5C 194.831,94.2705 198.498,92.6038 202.5,91.5 Z"/></g>
<g><path style="opacity:1" fill="#f2e2d7" d="M 242.5,90.5 C 242.833,90.5 243.167,90.5 243.5,90.5C 243.334,94.8461 243.501,99.1794 244,103.5C 244.232,104.737 244.732,105.737 245.5,106.5C 245.5,107.5 245.5,108.5 245.5,109.5C 226.5,109.5 207.5,109.5 188.5,109.5C 188.5,109.167 188.5,108.833 188.5,108.5C 196.5,108.5 204.5,108.5 212.5,108.5C 222.19,108.832 231.856,108.498 241.5,107.5C 241.376,106.893 241.043,106.56 240.5,106.5C 241.678,102.701 241.678,98.868 240.5,95C 240.759,93.2134 241.425,91.7134 242.5,90.5 Z"/></g>
<g><path style="opacity:1" fill="#e4ae67" d="M 316.5,86.5 C 317.807,92.7343 317.807,99.0676 316.5,105.5C 316.167,105.5 315.833,105.5 315.5,105.5C 316.372,99.2111 316.705,92.8778 316.5,86.5 Z"/></g>
<g><path style="opacity:1" fill="#909599" d="M 188.5,101.5 C 188.5,103.833 188.5,106.167 188.5,108.5C 188.5,108.833 188.5,109.167 188.5,109.5C 187.5,109.5 186.5,109.5 185.5,109.5C 186.007,106.569 187.007,103.902 188.5,101.5 Z"/></g>
<g><path style="opacity:1" fill="#cce5ef" d="M 144.5,106.5 C 144.5,107.167 144.5,107.833 144.5,108.5C 135.167,108.5 125.833,108.5 116.5,108.5C 125.44,106.528 134.773,105.861 144.5,106.5 Z"/></g>
<g><path style="opacity:1" fill="#455e68" d="M 159.5,108.5 C 159.5,108.167 159.5,107.833 159.5,107.5C 167.775,106.199 176.108,106.199 184.5,107.5C 176.193,108.498 167.86,108.831 159.5,108.5 Z"/></g>
<g><path style="opacity:1" fill="#cce5ef" d="M 213.5,106.5 C 222.5,106.5 231.5,106.5 240.5,106.5C 241.043,106.56 241.376,106.893 241.5,107.5C 231.856,108.498 222.19,108.832 212.5,108.5C 212.833,107.833 213.167,107.167 213.5,106.5 Z"/></g>
<g><path style="opacity:1" fill="#ffb803" d="M 247.5,107.5 C 264.995,106.338 282.662,106.171 300.5,107C 291.824,108.155 282.99,108.655 274,108.5C 265.092,108.487 256.258,108.153 247.5,107.5 Z"/></g>
<g><path style="opacity:1" fill="#fbdccd" d="M 115.5,108.5 C 115.5,108.833 115.5,109.167 115.5,109.5C 105.985,109.173 96.6517,109.506 87.5,110.5C 87.1667,110.5 86.8333,110.5 86.5,110.5C 95.7755,108.527 105.442,107.86 115.5,108.5 Z"/></g>
<g><path style="opacity:1" fill="#d5c3ba" d="M 159.5,98.5 C 159.5,101.5 159.5,104.5 159.5,107.5C 159.5,107.833 159.5,108.167 159.5,108.5C 159.5,108.833 159.5,109.167 159.5,109.5C 145.167,109.5 130.833,109.5 116.5,109.5C 116.5,109.167 116.5,108.833 116.5,108.5C 125.833,108.5 135.167,108.5 144.5,108.5C 149.167,108.5 153.833,108.5 158.5,108.5C 158.187,104.958 158.521,101.625 159.5,98.5 Z"/></g>
<g><path style="opacity:1" fill="#d79070" d="M 245.5,106.5 C 246.404,107.209 246.737,108.209 246.5,109.5C 193.669,110.499 140.669,110.832 87.5,110.5C 96.6517,109.506 105.985,109.173 115.5,109.5C 115.833,109.5 116.167,109.5 116.5,109.5C 130.833,109.5 145.167,109.5 159.5,109.5C 168.167,109.5 176.833,109.5 185.5,109.5C 186.5,109.5 187.5,109.5 188.5,109.5C 207.5,109.5 226.5,109.5 245.5,109.5C 245.5,108.5 245.5,107.5 245.5,106.5 Z"/></g>
<g><path style="opacity:1" fill="#f4bf9a" d="M 315.5,105.5 C 315.833,105.5 316.167,105.5 316.5,105.5C 316.326,107.861 315.993,110.194 315.5,112.5C 317.933,112.273 319.599,113.273 320.5,115.5C 317.926,114.536 315.593,113.203 313.5,111.5C 314.63,109.685 315.296,107.685 315.5,105.5 Z"/></g>
<g><path style="opacity:1" fill="#eb671f" d="M 312.5,110.5 C 304.169,110.884 295.836,111.218 287.5,111.5C 273.167,111.5 258.833,111.5 244.5,111.5C 225.167,111.5 205.833,111.5 186.5,111.5C 177.5,111.5 168.5,111.5 159.5,111.5C 135.5,111.5 111.5,111.5 87.5,111.5C 86.8333,111.5 86.1667,111.5 85.5,111.5C 85.5,111.167 85.5,110.833 85.5,110.5C 85.8333,110.5 86.1667,110.5 86.5,110.5C 86.8333,110.5 87.1667,110.5 87.5,110.5C 140.669,110.832 193.669,110.499 246.5,109.5C 264.5,109.5 282.5,109.5 300.5,109.5C 304.437,109.793 308.27,109.46 312,108.5C 312.464,109.094 312.631,109.761 312.5,110.5 Z"/></g>
<g><path style="opacity:1" fill="#ed3d02" d="M 186.5,111.5 C 205.833,111.5 225.167,111.5 244.5,111.5C 225.863,113.487 206.863,114.154 187.5,113.5C 187.167,112.833 186.833,112.167 186.5,111.5 Z"/></g>
<g><path style="opacity:1" fill="#f7a887" d="M 85.5,110.5 C 85.5,110.833 85.5,111.167 85.5,111.5C 84.1667,111.5 83.5,112.167 83.5,113.5C 82.0413,113.433 80.7079,113.766 79.5,114.5C 80.8282,112.281 82.8282,110.948 85.5,110.5 Z"/></g>
<g><path style="opacity:1" fill="#ea5305" d="M 85.5,111.5 C 86.1667,111.5 86.8333,111.5 87.5,111.5C 99.3145,112.832 111.481,113.499 124,113.5C 136.167,113.333 148.333,113.167 160.5,113C 159.944,112.617 159.611,112.117 159.5,111.5C 168.5,111.5 177.5,111.5 186.5,111.5C 186.833,112.167 187.167,112.833 187.5,113.5C 220.34,114.523 253.34,114.69 286.5,114C 287.658,130.426 287.824,146.926 287,163.5C 286.066,164.858 285.232,166.192 284.5,167.5C 284.5,166.5 284.5,165.5 284.5,164.5C 280.988,163.945 277.988,164.612 275.5,166.5C 274.222,166.782 273.222,167.449 272.5,168.5C 272.719,167.325 272.386,166.325 271.5,165.5C 265.913,173.761 259.913,181.761 253.5,189.5C 252.311,190.429 250.978,190.762 249.5,190.5C 249.651,185.386 248.651,184.719 246.5,188.5C 246.5,187.833 246.5,187.167 246.5,186.5C 246.5,185.833 246.5,185.167 246.5,184.5C 247.117,184.389 247.617,184.056 248,183.5C 248.495,181.527 248.662,179.527 248.5,177.5C 248.5,177.167 248.5,176.833 248.5,176.5C 249.924,174.485 250.59,172.152 250.5,169.5C 252.585,167.316 253.585,164.649 253.5,161.5C 255,157.67 255.667,153.67 255.5,149.5C 256.586,149.38 257.253,148.713 257.5,147.5C 257.457,146.584 257.124,145.917 256.5,145.5C 256.5,144.833 256.167,144.5 255.5,144.5C 256.091,143.849 256.757,143.182 257.5,142.5C 254.894,141.348 252.227,141.182 249.5,142C 245.603,144.436 241.603,146.602 237.5,148.5C 235.97,152.708 233.97,156.708 231.5,160.5C 231.167,161.833 230.833,163.167 230.5,164.5C 230.585,166.333 231.252,167.666 232.5,168.5C 232.483,170.565 232.15,172.565 231.5,174.5C 230.869,176.975 229.869,179.309 228.5,181.5C 228.719,180.325 228.386,179.325 227.5,178.5C 225.152,184.02 221.486,188.52 216.5,192C 214.421,192.808 212.421,192.641 210.5,191.5C 211.585,188.227 211.752,184.894 211,181.5C 209.259,183.541 209.092,185.708 210.5,188C 209.281,189.795 208.281,189.628 207.5,187.5C 208.167,184.5 208.833,181.5 209.5,178.5C 210.117,178.389 210.617,178.056 211,177.5C 211.497,175.19 211.663,172.857 211.5,170.5C 213.265,167.877 213.932,164.877 213.5,161.5C 214.931,160.22 215.598,158.553 215.5,156.5C 216.924,154.485 217.59,152.152 217.5,149.5C 218.801,148.116 218.801,146.616 217.5,145C 215.115,144.444 212.782,144.61 210.5,145.5C 210.611,144.883 210.944,144.383 211.5,144C 214.226,143.818 216.893,143.318 219.5,142.5C 216.167,141.167 212.833,141.167 209.5,142.5C 207.167,144 204.833,145.5 202.5,147C 201.663,148.011 201.33,149.178 201.5,150.5C 199.61,150.297 198.11,150.963 197,152.5C 191.753,161.26 189.253,170.593 189.5,180.5C 190.17,178.709 190.837,177.042 191.5,175.5C 191.5,176.833 191.5,178.167 191.5,179.5C 191.818,182.481 190.818,184.815 188.5,186.5C 188.058,181.306 187.058,181.306 185.5,186.5C 183.5,188.167 181.5,189.833 179.5,191.5C 179.036,189.025 178.036,187.025 176.5,185.5C 177.219,183.236 177.552,180.903 177.5,178.5C 177.232,176.901 177.566,175.568 178.5,174.5C 178.335,177.85 178.502,181.183 179,184.5C 181.855,179.797 183.855,174.797 185,169.5C 186.419,162.485 187.919,155.485 189.5,148.5C 188.829,146.165 187.829,143.998 186.5,142C 173.129,140.592 160.129,141.759 147.5,145.5C 147.285,147.179 147.952,148.179 149.5,148.5C 148.41,149.857 147.076,150.857 145.5,151.5C 142.802,151.845 140.802,153.178 139.5,155.5C 137.596,155.738 136.262,156.738 135.5,158.5C 132.427,160.569 130.094,163.236 128.5,166.5C 127.094,166.973 126.427,167.973 126.5,169.5C 125.094,169.973 124.427,170.973 124.5,172.5C 124.5,172.833 124.5,173.167 124.5,173.5C 123.094,173.973 122.427,174.973 122.5,176.5C 122.5,177.167 122.5,177.833 122.5,178.5C 121.076,180.515 120.41,182.848 120.5,185.5C 119.191,189.351 119.191,193.351 120.5,197.5C 121.183,197.863 121.85,198.196 122.5,198.5C 122.427,200.027 123.094,201.027 124.5,201.5C 127.483,204.386 131.149,205.72 135.5,205.5C 140.717,205.644 145.383,204.311 149.5,201.5C 150.609,201.443 151.609,201.11 152.5,200.5C 154.833,199.167 157.167,197.833 159.5,196.5C 159.263,197.791 159.596,198.791 160.5,199.5C 161.262,201.262 162.596,202.262 164.5,202.5C 164.611,203.117 164.944,203.617 165.5,204C 169.833,204.667 174.167,204.667 178.5,204C 179.056,203.617 179.389,203.117 179.5,202.5C 180.167,202.5 180.833,202.5 181.5,202.5C 183.404,202.262 184.738,201.262 185.5,199.5C 189.085,193.946 191.918,194.279 194,200.5C 194.816,201.823 195.983,202.489 197.5,202.5C 197.611,203.117 197.944,203.617 198.5,204C 206.623,206.338 214.289,205.505 221.5,201.5C 222.167,201.167 222.833,200.833 223.5,200.5C 225.844,199.083 228.177,197.75 230.5,196.5C 230.263,197.791 230.596,198.791 231.5,199.5C 232.167,200.167 232.833,200.833 233.5,201.5C 235.86,203.977 238.86,204.977 242.5,204.5C 245.737,204.654 248.737,203.987 251.5,202.5C 253.933,202.727 255.599,201.727 256.5,199.5C 257.222,198.449 258.222,197.782 259.5,197.5C 259.47,198.497 259.97,199.164 261,199.5C 262.171,198.66 263.338,197.827 264.5,197C 272.03,188.306 279.363,179.473 286.5,170.5C 287.666,195.493 287.833,220.493 287,245.5C 286.685,247.586 286.185,249.586 285.5,251.5C 277.728,257.289 274.561,264.955 276,274.5C 277.344,277.671 278.51,280.838 279.5,284C 272.113,302.69 260.113,318.023 243.5,330C 237.99,333.513 232.323,336.846 226.5,340C 222.394,340.891 218.394,342.058 214.5,343.5C 206.814,343.473 199.648,343.806 193,344.5C 177.072,344.017 161.238,343.017 145.5,341.5C 149.842,330.204 150.676,318.538 148,306.5C 141.871,295.938 132.871,289.271 121,286.5C 120.167,286.833 119.333,287.167 118.5,287.5C 119.63,288.622 120.297,289.956 120.5,291.5C 115.497,285.805 109.163,282.138 101.5,280.5C 96.0154,279.348 90.3487,279.182 84.5,280C 82.0302,280.989 79.6968,282.155 77.5,283.5C 77.3404,281.847 76.6737,280.514 75.5,279.5C 74.5448,277.254 73.8782,274.921 73.5,272.5C 73.8799,270.302 73.2132,268.635 71.5,267.5C 71.5,266.833 71.5,266.167 71.5,265.5C 71.5,264.167 71.5,262.833 71.5,261.5C 72.29,262.609 72.79,263.942 73,265.5C 73.1667,262.333 73.3333,259.167 73.5,256C 72.389,214.84 72.2223,173.673 73,132.5C 73.6192,123.542 78.1192,117.375 86.5,114C 85.552,113.517 84.552,113.351 83.5,113.5C 83.5,112.167 84.1667,111.5 85.5,111.5 Z"/></g>
<g><path style="opacity:1" fill="#ea3902" d="M 87.5,111.5 C 111.5,111.5 135.5,111.5 159.5,111.5C 159.611,112.117 159.944,112.617 160.5,113C 148.333,113.167 136.167,113.333 124,113.5C 111.481,113.499 99.3145,112.832 87.5,111.5 Z"/></g>
<g><path style="opacity:1" fill="#d83f04" d="M 312.5,110.5 C 312.5,111.167 312.833,111.5 313.5,111.5C 315.593,113.203 317.926,114.536 320.5,115.5C 323.255,118.013 325.255,121.013 326.5,124.5C 325.883,124.611 325.383,124.944 325,125.5C 324.803,164.518 324.303,203.518 323.5,242.5C 317.682,236.903 310.682,235.069 302.5,237C 300.68,237.2 299.347,238.034 298.5,239.5C 294.949,241.111 291.949,243.444 289.5,246.5C 288.828,201.598 288.162,156.598 287.5,111.5C 295.836,111.218 304.169,110.884 312.5,110.5 Z"/></g>
<g><path style="opacity:1" fill="#e84301" d="M 83.5,113.5 C 84.552,113.351 85.552,113.517 86.5,114C 78.1192,117.375 73.6192,123.542 73,132.5C 72.2223,173.673 72.389,214.84 73.5,256C 73.3333,259.167 73.1667,262.333 73,265.5C 72.79,263.942 72.29,262.609 71.5,261.5C 71.5,258.833 71.5,256.167 71.5,253.5C 70.1667,211.167 70.1667,168.833 71.5,126.5C 73.003,121.675 75.6696,117.675 79.5,114.5C 80.7079,113.766 82.0413,113.433 83.5,113.5 Z"/></g>
<g><path style="opacity:1" fill="#d7390a" d="M 326.5,124.5 C 326.181,126.75 326.681,128.75 328,130.5C 328.5,169.165 328.667,207.832 328.5,246.5C 326.539,245.54 324.873,244.207 323.5,242.5C 324.303,203.518 324.803,164.518 325,125.5C 325.383,124.944 325.883,124.611 326.5,124.5 Z"/></g>
<g><path style="opacity:1" fill="#efa991" d="M 326.5,124.5 C 327.558,125.6 328.392,126.934 329,128.5C 329.5,168.499 329.667,208.499 329.5,248.5C 329.167,248.5 328.833,248.5 328.5,248.5C 328.5,247.833 328.5,247.167 328.5,246.5C 328.667,207.832 328.5,169.165 328,130.5C 326.681,128.75 326.181,126.75 326.5,124.5 Z"/></g>
<g><path style="opacity:1" fill="#ec5c1a" d="M 71.5,126.5 C 70.1667,168.833 70.1667,211.167 71.5,253.5C 70.8333,252.833 70.1667,252.167 69.5,251.5C 69.5,250.833 69.5,250.167 69.5,249.5C 68.839,208.153 69.5056,167.153 71.5,126.5 Z"/></g>
<g><path style="opacity:1" fill="#f49f79" d="M 79.5,114.5 C 75.6696,117.675 73.003,121.675 71.5,126.5C 69.5056,167.153 68.839,208.153 69.5,249.5C 69.1667,249.5 68.8333,249.5 68.5,249.5C 68.3333,208.165 68.5,166.832 69,125.5C 71.3786,120.624 74.8786,116.958 79.5,114.5 Z"/></g>
<g><path style="opacity:1" fill="#e94607" d="M 178.5,174.5 C 180.256,173.448 180.923,171.781 180.5,169.5C 182.291,164.335 183.624,159.002 184.5,153.5C 184.5,152.167 184.5,150.833 184.5,149.5C 185.906,149.027 186.573,148.027 186.5,146.5C 183.402,145.179 179.902,144.512 176,144.5C 172.317,144.501 168.817,144.835 165.5,145.5C 164.833,145.5 164.5,145.833 164.5,146.5C 164.167,146.5 163.833,146.5 163.5,146.5C 160.813,146.336 158.146,146.503 155.5,147C 154.944,147.383 154.611,147.883 154.5,148.5C 152.833,148.5 151.167,148.5 149.5,148.5C 147.952,148.179 147.285,147.179 147.5,145.5C 160.129,141.759 173.129,140.592 186.5,142C 187.829,143.998 188.829,146.165 189.5,148.5C 187.919,155.485 186.419,162.485 185,169.5C 183.855,174.797 181.855,179.797 179,184.5C 178.502,181.183 178.335,177.85 178.5,174.5 Z"/></g>
<g><path style="opacity:1" fill="#f18458" d="M 165.5,145.5 C 168.817,144.835 172.317,144.501 176,144.5C 179.902,144.512 183.402,145.179 186.5,146.5C 179.588,145.538 172.588,145.205 165.5,145.5 Z"/></g>
<g><path style="opacity:1" fill="#f07c50" d="M 255.5,144.5 C 256.167,144.5 256.5,144.833 256.5,145.5C 254.265,145.205 252.265,145.539 250.5,146.5C 249.833,146.5 249.167,146.5 248.5,146.5C 248.611,145.883 248.944,145.383 249.5,145C 251.473,144.505 253.473,144.338 255.5,144.5 Z"/></g>
<g><path style="opacity:1" fill="#f6b396" d="M 164.5,146.5 C 164.5,145.833 164.833,145.5 165.5,145.5C 172.588,145.205 179.588,145.538 186.5,146.5C 186.573,148.027 185.906,149.027 184.5,149.5C 184.5,148.5 184.5,147.5 184.5,146.5C 177.833,146.5 171.167,146.5 164.5,146.5 Z"/></g>
<g><path style="opacity:1" fill="#ea480e" d="M 210.5,145.5 C 210.5,145.833 210.5,146.167 210.5,146.5C 207.066,146.934 204.399,148.6 202.5,151.5C 200.738,152.262 199.738,153.596 199.5,155.5C 196.874,157.764 195.541,160.764 195.5,164.5C 195.5,165.167 195.5,165.833 195.5,166.5C 193.787,167.635 193.12,169.302 193.5,171.5C 193.5,171.833 193.5,172.167 193.5,172.5C 192.833,173.5 192.167,174.5 191.5,175.5C 190.837,177.042 190.17,178.709 189.5,180.5C 189.253,170.593 191.753,161.26 197,152.5C 198.11,150.963 199.61,150.297 201.5,150.5C 201.33,149.178 201.663,148.011 202.5,147C 204.833,145.5 207.167,144 209.5,142.5C 212.833,141.167 216.167,141.167 219.5,142.5C 216.893,143.318 214.226,143.818 211.5,144C 210.944,144.383 210.611,144.883 210.5,145.5 Z"/></g>
<g><path style="opacity:1" fill="#f4a07d" d="M 217.5,149.5 C 217.715,147.821 217.048,146.821 215.5,146.5C 213.833,146.5 212.167,146.5 210.5,146.5C 210.5,146.167 210.5,145.833 210.5,145.5C 212.782,144.61 215.115,144.444 217.5,145C 218.801,146.616 218.801,148.116 217.5,149.5 Z"/></g>
<g><path style="opacity:1" fill="#f6ae8f" d="M 250.5,146.5 C 252.265,145.539 254.265,145.205 256.5,145.5C 257.124,145.917 257.457,146.584 257.5,147.5C 257.253,148.713 256.586,149.38 255.5,149.5C 255.5,148.5 255.5,147.5 255.5,146.5C 253.833,146.5 252.167,146.5 250.5,146.5 Z"/></g>
<g><path style="opacity:1" fill="#f49b77" d="M 163.5,146.5 C 163.158,147.338 162.492,147.672 161.5,147.5C 159.097,147.448 156.764,147.781 154.5,148.5C 154.611,147.883 154.944,147.383 155.5,147C 158.146,146.503 160.813,146.336 163.5,146.5 Z"/></g>
<g><path style="opacity:1" fill="#faccb9" d="M 248.5,146.5 C 249.167,146.5 249.833,146.5 250.5,146.5C 252.167,146.5 253.833,146.5 255.5,146.5C 255.5,147.5 255.5,148.5 255.5,149.5C 255.667,153.67 255,157.67 253.5,161.5C 252.833,162.167 252.167,162.833 251.5,163.5C 252.523,158.139 253.523,152.806 254.5,147.5C 249.475,147.685 244.809,149.018 240.5,151.5C 242.53,148.818 245.197,147.151 248.5,146.5 Z"/></g>
<g><path style="opacity:1" fill="#fefaf8" d="M 163.5,146.5 C 163.833,146.5 164.167,146.5 164.5,146.5C 171.167,146.5 177.833,146.5 184.5,146.5C 184.5,147.5 184.5,148.5 184.5,149.5C 184.5,150.833 184.5,152.167 184.5,153.5C 182.59,156.452 181.59,159.786 181.5,163.5C 179.72,164.99 179.054,166.99 179.5,169.5C 178.962,171.117 178.629,172.784 178.5,174.5C 177.566,175.568 177.232,176.901 177.5,178.5C 175.837,180.438 175.171,182.772 175.5,185.5C 175.5,185.833 175.5,186.167 175.5,186.5C 174.087,189.219 173.42,192.219 173.5,195.5C 173.484,197.484 174.484,198.484 176.5,198.5C 178.325,197.349 180.325,196.682 182.5,196.5C 182.5,195.5 182.5,194.5 182.5,193.5C 185.069,193.262 186.735,191.929 187.5,189.5C 188.11,188.609 188.443,187.609 188.5,186.5C 190.818,184.815 191.818,182.481 191.5,179.5C 192.117,179.389 192.617,179.056 193,178.5C 193.495,176.527 193.662,174.527 193.5,172.5C 193.5,172.167 193.5,171.833 193.5,171.5C 195.213,170.365 195.88,168.698 195.5,166.5C 195.5,165.833 195.5,165.167 195.5,164.5C 197.205,161.739 198.538,158.739 199.5,155.5C 199.738,153.596 200.738,152.262 202.5,151.5C 206.701,149.25 211.034,147.583 215.5,146.5C 217.048,146.821 217.715,147.821 217.5,149.5C 217.167,149.5 216.833,149.5 216.5,149.5C 215.883,149.611 215.383,149.944 215,150.5C 214.452,154.17 213.952,157.837 213.5,161.5C 212.343,164.273 211.676,167.273 211.5,170.5C 210.566,171.568 210.232,172.901 210.5,174.5C 209.21,175.058 208.377,176.058 208,177.5C 207.174,180.793 206.674,184.126 206.5,187.5C 206.335,190.518 206.502,193.518 207,196.5C 207.383,197.056 207.883,197.389 208.5,197.5C 211.718,199.184 214.385,198.517 216.5,195.5C 216.833,195.5 217.167,195.5 217.5,195.5C 219.027,195.573 220.027,194.906 220.5,193.5C 222.5,191.5 224.5,189.5 226.5,187.5C 230.958,184.374 232.624,180.041 231.5,174.5C 233.28,173.01 233.946,171.01 233.5,168.5C 234.117,168.389 234.617,168.056 235,167.5C 235.495,165.527 235.662,163.527 235.5,161.5C 235.5,160.833 235.5,160.167 235.5,159.5C 237.993,157.342 239.66,154.676 240.5,151.5C 244.809,149.018 249.475,147.685 254.5,147.5C 253.523,152.806 252.523,158.139 251.5,163.5C 250.659,165.379 250.325,167.379 250.5,169.5C 249.883,169.611 249.383,169.944 249,170.5C 248.505,172.473 248.338,174.473 248.5,176.5C 248.5,176.833 248.5,177.167 248.5,177.5C 247.883,177.611 247.383,177.944 247,178.5C 246.505,180.473 246.338,182.473 246.5,184.5C 246.5,185.167 246.5,185.833 246.5,186.5C 245.06,187.946 244.393,189.779 244.5,192C 244.514,193.385 244.848,194.551 245.5,195.5C 246.833,198.167 248.167,198.167 249.5,195.5C 249.833,195.5 250.167,195.5 250.5,195.5C 252.027,195.573 253.027,194.906 253.5,193.5C 258.51,190.82 262.177,186.82 264.5,181.5C 266.736,179.837 268.736,177.837 270.5,175.5C 271.429,174.311 271.762,172.978 271.5,171.5C 273.449,170.816 275.115,169.649 276.5,168C 277.333,167.833 278.167,167.667 279,167.5C 280.376,167.684 281.209,168.351 281.5,169.5C 280.525,171.795 279.192,173.795 277.5,175.5C 275.178,176.802 273.845,178.802 273.5,181.5C 272.5,181.833 271.833,182.5 271.5,183.5C 269.738,184.262 268.738,185.596 268.5,187.5C 267.449,188.222 266.782,189.222 266.5,190.5C 264.5,191.833 262.833,193.5 261.5,195.5C 260.167,195.5 259.5,196.167 259.5,197.5C 258.222,197.782 257.222,198.449 256.5,199.5C 254.833,200.167 253.167,200.833 251.5,201.5C 245.485,204.096 239.485,204.096 233.5,201.5C 232.833,200.833 232.167,200.167 231.5,199.5C 231.5,197.833 231.5,196.167 231.5,194.5C 229.901,194.232 228.568,194.566 227.5,195.5C 226.197,197.142 224.864,198.809 223.5,200.5C 222.833,200.833 222.167,201.167 221.5,201.5C 213.589,203.605 205.589,203.938 197.5,202.5C 195.983,202.489 194.816,201.823 194,200.5C 191.918,194.279 189.085,193.946 185.5,199.5C 183.596,199.738 182.262,200.738 181.5,202.5C 180.833,202.5 180.167,202.5 179.5,202.5C 174.5,203.833 169.5,203.833 164.5,202.5C 162.596,202.262 161.262,201.262 160.5,199.5C 160.5,197.833 160.5,196.167 160.5,194.5C 158.219,194.077 156.552,194.744 155.5,196.5C 154.5,197.833 153.5,199.167 152.5,200.5C 151.609,201.11 150.609,201.443 149.5,201.5C 145.205,202.894 140.705,203.561 136,203.5C 132.074,203.134 128.24,202.467 124.5,201.5C 123.094,201.027 122.427,200.027 122.5,198.5C 120.787,194.404 120.121,190.07 120.5,185.5C 121.924,183.485 122.59,181.152 122.5,178.5C 125.75,175.216 127.75,171.216 128.5,166.5C 130.094,163.236 132.427,160.569 135.5,158.5C 137.404,158.262 138.738,157.262 139.5,155.5C 141.966,154.702 143.966,153.369 145.5,151.5C 150.898,150.257 156.231,148.924 161.5,147.5C 162.492,147.672 163.158,147.338 163.5,146.5 Z"/></g>
<g><path style="opacity:1" fill="#facebb" d="M 210.5,146.5 C 212.167,146.5 213.833,146.5 215.5,146.5C 211.034,147.583 206.701,149.25 202.5,151.5C 204.399,148.6 207.066,146.934 210.5,146.5 Z"/></g>
<g><path style="opacity:1" fill="#e9440b" d="M 255.5,144.5 C 253.473,144.338 251.473,144.505 249.5,145C 248.944,145.383 248.611,145.883 248.5,146.5C 245.197,147.151 242.53,148.818 240.5,151.5C 238.05,153.629 236.383,156.296 235.5,159.5C 235.5,160.167 235.5,160.833 235.5,161.5C 234.076,163.515 233.41,165.848 233.5,168.5C 233.167,168.5 232.833,168.5 232.5,168.5C 231.252,167.666 230.585,166.333 230.5,164.5C 230.833,163.167 231.167,161.833 231.5,160.5C 233.97,156.708 235.97,152.708 237.5,148.5C 241.603,146.602 245.603,144.436 249.5,142C 252.227,141.182 254.894,141.348 257.5,142.5C 256.757,143.182 256.091,143.849 255.5,144.5 Z"/></g>
<g><path style="opacity:1" fill="#f7b397" d="M 161.5,147.5 C 156.231,148.924 150.898,150.257 145.5,151.5C 147.076,150.857 148.41,149.857 149.5,148.5C 151.167,148.5 152.833,148.5 154.5,148.5C 156.764,147.781 159.097,147.448 161.5,147.5 Z"/></g>
<g><path style="opacity:1" fill="#fbd7c8" d="M 216.5,149.5 C 215.781,151.764 215.448,154.097 215.5,156.5C 215.598,158.553 214.931,160.22 213.5,161.5C 213.952,157.837 214.452,154.17 215,150.5C 215.383,149.944 215.883,149.611 216.5,149.5 Z"/></g>
<g><path style="opacity:1" fill="#f9c4ad" d="M 166.5,155.5 C 166.209,154.351 165.376,153.684 164,153.5C 161.023,154.547 158.19,155.88 155.5,157.5C 155.414,156.504 155.748,155.671 156.5,155C 159.834,152.925 163.501,152.091 167.5,152.5C 167.737,153.791 167.404,154.791 166.5,155.5 Z"/></g>
<g><path style="opacity:1" fill="#f39367" d="M 216.5,149.5 C 216.833,149.5 217.167,149.5 217.5,149.5C 217.59,152.152 216.924,154.485 215.5,156.5C 215.448,154.097 215.781,151.764 216.5,149.5 Z"/></g>
<g><path style="opacity:1" fill="#f7ad8f" d="M 145.5,151.5 C 143.966,153.369 141.966,154.702 139.5,155.5C 140.802,153.178 142.802,151.845 145.5,151.5 Z"/></g>
<g><path style="opacity:1" fill="#f8bea4" d="M 139.5,155.5 C 138.738,157.262 137.404,158.262 135.5,158.5C 136.262,156.738 137.596,155.738 139.5,155.5 Z"/></g>
<g><path style="opacity:1" fill="#ec5d26" d="M 166.5,155.5 C 165.833,155.833 165.167,156.167 164.5,156.5C 164.265,155.903 163.765,155.57 163,155.5C 160.323,156.222 157.823,157.222 155.5,158.5C 155.5,158.167 155.5,157.833 155.5,157.5C 158.19,155.88 161.023,154.547 164,153.5C 165.376,153.684 166.209,154.351 166.5,155.5 Z"/></g>
<g><path style="opacity:1" fill="#f38b61" d="M 155.5,157.5 C 155.5,157.833 155.5,158.167 155.5,158.5C 153.999,159.752 152.332,160.752 150.5,161.5C 151.539,159.469 153.205,158.136 155.5,157.5 Z"/></g>
<g><path style="opacity:1" fill="#ea4f07" d="M 163.5,161.5 C 163.007,163.806 162.674,166.139 162.5,168.5C 160.395,171.408 159.395,174.742 159.5,178.5C 157.9,182.748 155.9,186.748 153.5,190.5C 150.883,191.786 148.55,193.453 146.5,195.5C 145.391,195.557 144.391,195.89 143.5,196.5C 141.097,196.552 138.764,196.219 136.5,195.5C 136.068,192.123 136.735,189.123 138.5,186.5C 138.351,187.552 138.517,188.552 139,189.5C 141.705,177.105 148.205,167.105 158.5,159.5C 159.689,158.571 161.022,158.238 162.5,158.5C 162.263,159.791 162.596,160.791 163.5,161.5 Z"/></g>
<g><path style="opacity:1" fill="#f59c78" d="M 240.5,151.5 C 239.66,154.676 237.993,157.342 235.5,159.5C 236.383,156.296 238.05,153.629 240.5,151.5 Z"/></g>
<g><path style="opacity:1" fill="#f18154" d="M 184.5,153.5 C 183.624,159.002 182.291,164.335 180.5,169.5C 180.517,167.435 180.85,165.435 181.5,163.5C 181.59,159.786 182.59,156.452 184.5,153.5 Z"/></g>
<g><path style="opacity:1" fill="#f2865a" d="M 166.5,155.5 C 165.408,160.013 164.074,164.346 162.5,168.5C 162.674,166.139 163.007,163.806 163.5,161.5C 163.629,159.784 163.962,158.117 164.5,156.5C 165.167,156.167 165.833,155.833 166.5,155.5 Z"/></g>
<g><path style="opacity:1" fill="#f18059" d="M 150.5,161.5 C 150.144,163.19 149.144,164.19 147.5,164.5C 147.856,162.81 148.856,161.81 150.5,161.5 Z"/></g>
<g><path style="opacity:1" fill="#f6aa8a" d="M 199.5,155.5 C 198.538,158.739 197.205,161.739 195.5,164.5C 195.541,160.764 196.874,157.764 199.5,155.5 Z"/></g>
<g><path style="opacity:1" fill="#f4916a" d="M 253.5,161.5 C 253.585,164.649 252.585,167.316 250.5,169.5C 250.325,167.379 250.659,165.379 251.5,163.5C 252.167,162.833 252.833,162.167 253.5,161.5 Z"/></g>
<g><path style="opacity:1" fill="#f39772" d="M 284.5,167.5 C 284.5,168.167 284.167,168.5 283.5,168.5C 283.5,167.5 283.5,166.5 283.5,165.5C 280.721,165.279 278.054,165.612 275.5,166.5C 277.988,164.612 280.988,163.945 284.5,164.5C 284.5,165.5 284.5,166.5 284.5,167.5 Z"/></g>
<g><path style="opacity:1" fill="#f8c0a7" d="M 181.5,163.5 C 180.85,165.435 180.517,167.435 180.5,169.5C 180.167,169.5 179.833,169.5 179.5,169.5C 179.054,166.99 179.72,164.99 181.5,163.5 Z"/></g>
<g><path style="opacity:1" fill="#fbd6c6" d="M 283.5,168.5 C 282.833,168.833 282.167,169.167 281.5,169.5C 281.209,168.351 280.376,167.684 279,167.5C 278.167,167.667 277.333,167.833 276.5,168C 275.115,169.649 273.449,170.816 271.5,171.5C 272.11,170.609 272.443,169.609 272.5,168.5C 273.222,167.449 274.222,166.782 275.5,166.5C 278.054,165.612 280.721,165.279 283.5,165.5C 283.5,166.5 283.5,167.5 283.5,168.5 Z"/></g>
<g><path style="opacity:1" fill="#e74a06" d="M 244.5,111.5 C 258.833,111.5 273.167,111.5 287.5,111.5C 288.162,156.598 288.828,201.598 289.5,246.5C 287.736,251.644 287.069,256.977 287.5,262.5C 286.833,258.833 286.167,255.167 285.5,251.5C 286.185,249.586 286.685,247.586 287,245.5C 287.833,220.493 287.666,195.493 286.5,170.5C 279.363,179.473 272.03,188.306 264.5,197C 263.338,197.827 262.171,198.66 261,199.5C 259.97,199.164 259.47,198.497 259.5,197.5C 260.5,197.167 261.167,196.5 261.5,195.5C 264.167,194.833 265.833,193.167 266.5,190.5C 266.782,189.222 267.449,188.222 268.5,187.5C 270.262,186.738 271.262,185.404 271.5,183.5C 271.833,182.5 272.5,181.833 273.5,181.5C 275.326,179.853 276.66,177.853 277.5,175.5C 279.192,173.795 280.525,171.795 281.5,169.5C 282.167,169.167 282.833,168.833 283.5,168.5C 284.167,168.5 284.5,168.167 284.5,167.5C 285.232,166.192 286.066,164.858 287,163.5C 287.824,146.926 287.658,130.426 286.5,114C 253.34,114.69 220.34,114.523 187.5,113.5C 206.863,114.154 225.863,113.487 244.5,111.5 Z"/></g>
<g><path style="opacity:1" fill="#f7b99d" d="M 235.5,161.5 C 235.662,163.527 235.495,165.527 235,167.5C 234.617,168.056 234.117,168.389 233.5,168.5C 233.41,165.848 234.076,163.515 235.5,161.5 Z"/></g>
<g><path style="opacity:1" fill="#f7a885" d="M 146.5,166.5 C 145.833,167.833 144.833,168.833 143.5,169.5C 143.5,167.5 144.5,166.5 146.5,166.5 Z"/></g>
<g><path style="opacity:1" fill="#f5a281" d="M 213.5,161.5 C 213.932,164.877 213.265,167.877 211.5,170.5C 211.676,167.273 212.343,164.273 213.5,161.5 Z"/></g>
<g><path style="opacity:1" fill="#f49b74" d="M 126.5,169.5 C 126.573,171.027 125.906,172.027 124.5,172.5C 124.427,170.973 125.094,169.973 126.5,169.5 Z"/></g>
<g><path style="opacity:1" fill="#f8baa0" d="M 143.5,169.5 C 142.533,172.434 141.2,175.1 139.5,177.5C 139.609,174.101 140.942,171.434 143.5,169.5 Z"/></g>
<g><path style="opacity:1" fill="#f5a280" d="M 195.5,166.5 C 195.88,168.698 195.213,170.365 193.5,171.5C 193.12,169.302 193.787,167.635 195.5,166.5 Z"/></g>
<g><path style="opacity:1" fill="#fbd5c5" d="M 128.5,166.5 C 127.75,171.216 125.75,175.216 122.5,178.5C 122.5,177.833 122.5,177.167 122.5,176.5C 123.906,176.027 124.573,175.027 124.5,173.5C 124.5,173.167 124.5,172.833 124.5,172.5C 125.906,172.027 126.573,171.027 126.5,169.5C 126.427,167.973 127.094,166.973 128.5,166.5 Z"/></g>
<g><path style="opacity:1" fill="#f4a17e" d="M 232.5,168.5 C 232.833,168.5 233.167,168.5 233.5,168.5C 233.946,171.01 233.28,173.01 231.5,174.5C 232.15,172.565 232.483,170.565 232.5,168.5 Z"/></g>
<g><path style="opacity:1" fill="#f2835b" d="M 179.5,169.5 C 179.833,169.5 180.167,169.5 180.5,169.5C 180.923,171.781 180.256,173.448 178.5,174.5C 178.629,172.784 178.962,171.117 179.5,169.5 Z"/></g>
<g><path style="opacity:1" fill="#f8ba9e" d="M 250.5,169.5 C 250.59,172.152 249.924,174.485 248.5,176.5C 248.338,174.473 248.505,172.473 249,170.5C 249.383,169.944 249.883,169.611 250.5,169.5 Z"/></g>
<g><path style="opacity:1" fill="#f59e7a" d="M 162.5,168.5 C 162.684,172.079 162.017,175.413 160.5,178.5C 160.167,178.5 159.833,178.5 159.5,178.5C 159.395,174.742 160.395,171.408 162.5,168.5 Z"/></g>
<g><path style="opacity:1" fill="#f29068" d="M 124.5,173.5 C 124.573,175.027 123.906,176.027 122.5,176.5C 122.427,174.973 123.094,173.973 124.5,173.5 Z"/></g>
<g><path style="opacity:1" fill="#e9430c" d="M 164.5,156.5 C 163.962,158.117 163.629,159.784 163.5,161.5C 162.596,160.791 162.263,159.791 162.5,158.5C 161.022,158.238 159.689,158.571 158.5,159.5C 148.205,167.105 141.705,177.105 139,189.5C 138.517,188.552 138.351,187.552 138.5,186.5C 138.5,185.167 138.5,183.833 138.5,182.5C 138.629,180.784 138.962,179.117 139.5,177.5C 141.2,175.1 142.533,172.434 143.5,169.5C 144.833,168.833 145.833,167.833 146.5,166.5C 146.328,165.508 146.662,164.842 147.5,164.5C 149.144,164.19 150.144,163.19 150.5,161.5C 152.332,160.752 153.999,159.752 155.5,158.5C 157.823,157.222 160.323,156.222 163,155.5C 163.765,155.57 164.265,155.903 164.5,156.5 Z"/></g>
<g><path style="opacity:1" fill="#fabda4" d="M 271.5,171.5 C 271.762,172.978 271.429,174.311 270.5,175.5C 268.736,177.837 266.736,179.837 264.5,181.5C 266.054,177.614 268.387,174.281 271.5,171.5 Z"/></g>
<g><path style="opacity:1" fill="#f6a582" d="M 277.5,175.5 C 276.66,177.853 275.326,179.853 273.5,181.5C 273.845,178.802 275.178,176.802 277.5,175.5 Z"/></g>
<g><path style="opacity:1" fill="#f28a64" d="M 211.5,170.5 C 211.663,172.857 211.497,175.19 211,177.5C 210.617,178.056 210.117,178.389 209.5,178.5C 209.833,177.167 210.167,175.833 210.5,174.5C 210.232,172.901 210.566,171.568 211.5,170.5 Z"/></g>
<g><path style="opacity:1" fill="#f6ae8f" d="M 193.5,172.5 C 193.662,174.527 193.495,176.527 193,178.5C 192.617,179.056 192.117,179.389 191.5,179.5C 191.5,178.167 191.5,176.833 191.5,175.5C 192.167,174.5 192.833,173.5 193.5,172.5 Z"/></g>
<g><path style="opacity:1" fill="#e9400b" d="M 272.5,168.5 C 272.443,169.609 272.11,170.609 271.5,171.5C 268.387,174.281 266.054,177.614 264.5,181.5C 260.843,185.459 257.176,189.459 253.5,193.5C 251.973,193.427 250.973,194.094 250.5,195.5C 250.167,195.5 249.833,195.5 249.5,195.5C 248.167,195.5 246.833,195.5 245.5,195.5C 245.448,193.097 245.781,190.764 246.5,188.5C 248.651,184.719 249.651,185.386 249.5,190.5C 250.978,190.762 252.311,190.429 253.5,189.5C 259.913,181.761 265.913,173.761 271.5,165.5C 272.386,166.325 272.719,167.325 272.5,168.5 Z"/></g>
<g><path style="opacity:1" fill="#f7b89d" d="M 122.5,178.5 C 122.59,181.152 121.924,183.485 120.5,185.5C 120.41,182.848 121.076,180.515 122.5,178.5 Z"/></g>
<g><path style="opacity:1" fill="#f9bca2" d="M 159.5,178.5 C 159.833,178.5 160.167,178.5 160.5,178.5C 159.697,183.446 157.364,187.446 153.5,190.5C 155.9,186.748 157.9,182.748 159.5,178.5 Z"/></g>
<g><path style="opacity:1" fill="#f5a07c" d="M 177.5,178.5 C 177.552,180.903 177.219,183.236 176.5,185.5C 176.167,185.5 175.833,185.5 175.5,185.5C 175.171,182.772 175.837,180.438 177.5,178.5 Z"/></g>
<g><path style="opacity:1" fill="#f7b396" d="M 248.5,177.5 C 248.662,179.527 248.495,181.527 248,183.5C 247.617,184.056 247.117,184.389 246.5,184.5C 246.338,182.473 246.505,180.473 247,178.5C 247.383,177.944 247.883,177.611 248.5,177.5 Z"/></g>
<g><path style="opacity:1" fill="#facebb" d="M 210.5,174.5 C 210.167,175.833 209.833,177.167 209.5,178.5C 208.833,181.5 208.167,184.5 207.5,187.5C 207.167,187.5 206.833,187.5 206.5,187.5C 206.674,184.126 207.174,180.793 208,177.5C 208.377,176.058 209.21,175.058 210.5,174.5 Z"/></g>
<g><path style="opacity:1" fill="#fbd3c2" d="M 139.5,177.5 C 138.962,179.117 138.629,180.784 138.5,182.5C 135.5,186.508 134.834,190.841 136.5,195.5C 136.833,196.167 137.167,196.833 137.5,197.5C 136.504,197.586 135.671,197.252 135,196.5C 133.571,189.28 135.071,182.947 139.5,177.5 Z"/></g>
<g><path style="opacity:1" fill="#f8b69a" d="M 231.5,174.5 C 232.624,180.041 230.958,184.374 226.5,187.5C 227.63,185.685 228.296,183.685 228.5,181.5C 229.869,179.309 230.869,176.975 231.5,174.5 Z"/></g>
<g><path style="opacity:1" fill="#f5a07e" d="M 271.5,183.5 C 271.262,185.404 270.262,186.738 268.5,187.5C 268.738,185.596 269.738,184.262 271.5,183.5 Z"/></g>
<g><path style="opacity:1" fill="#f07949" d="M 138.5,182.5 C 138.5,183.833 138.5,185.167 138.5,186.5C 136.735,189.123 136.068,192.123 136.5,195.5C 134.834,190.841 135.5,186.508 138.5,182.5 Z"/></g>
<g><path style="opacity:1" fill="#f2865e" d="M 188.5,186.5 C 188.443,187.609 188.11,188.609 187.5,189.5C 187.167,189.5 186.833,189.5 186.5,189.5C 186.427,187.973 187.094,186.973 188.5,186.5 Z"/></g>
<g><path style="opacity:1" fill="#f7b092" d="M 120.5,185.5 C 120.121,190.07 120.787,194.404 122.5,198.5C 121.85,198.196 121.183,197.863 120.5,197.5C 119.191,193.351 119.191,189.351 120.5,185.5 Z"/></g>
<g><path style="opacity:1" fill="#f9bba2" d="M 264.5,181.5 C 262.177,186.82 258.51,190.82 253.5,193.5C 257.176,189.459 260.843,185.459 264.5,181.5 Z"/></g>
<g><path style="opacity:1" fill="#f28f65" d="M 246.5,186.5 C 246.5,187.167 246.5,187.833 246.5,188.5C 245.781,190.764 245.448,193.097 245.5,195.5C 244.848,194.551 244.514,193.385 244.5,192C 244.393,189.779 245.06,187.946 246.5,186.5 Z"/></g>
<g><path style="opacity:1" fill="#e9420e" d="M 188.5,186.5 C 187.094,186.973 186.427,187.973 186.5,189.5C 185.167,190.833 183.833,192.167 182.5,193.5C 181.395,194.6 180.062,195.267 178.5,195.5C 177.504,195.586 176.671,195.252 176,194.5C 175.503,191.854 175.336,189.187 175.5,186.5C 175.5,186.167 175.5,185.833 175.5,185.5C 175.833,185.5 176.167,185.5 176.5,185.5C 178.036,187.025 179.036,189.025 179.5,191.5C 181.5,189.833 183.5,188.167 185.5,186.5C 187.058,181.306 188.058,181.306 188.5,186.5 Z"/></g>
<g><path style="opacity:1" fill="#fcd1be" d="M 186.5,189.5 C 186.833,189.5 187.167,189.5 187.5,189.5C 186.735,191.929 185.069,193.262 182.5,193.5C 183.833,192.167 185.167,190.833 186.5,189.5 Z"/></g>
<g><path style="opacity:1" fill="#e94408" d="M 228.5,181.5 C 228.296,183.685 227.63,185.685 226.5,187.5C 224.5,189.5 222.5,191.5 220.5,193.5C 218.973,193.427 217.973,194.094 217.5,195.5C 217.167,195.5 216.833,195.5 216.5,195.5C 215.391,195.557 214.391,195.89 213.5,196.5C 211.533,196.739 209.699,196.406 208,195.5C 207.503,192.854 207.336,190.187 207.5,187.5C 208.281,189.628 209.281,189.795 210.5,188C 209.092,185.708 209.259,183.541 211,181.5C 211.752,184.894 211.585,188.227 210.5,191.5C 212.421,192.641 214.421,192.808 216.5,192C 221.486,188.52 225.152,184.02 227.5,178.5C 228.386,179.325 228.719,180.325 228.5,181.5 Z"/></g>
<g><path style="opacity:1" fill="#f28150" d="M 266.5,190.5 C 265.833,193.167 264.167,194.833 261.5,195.5C 262.833,193.5 264.5,191.833 266.5,190.5 Z"/></g>
<g><path style="opacity:1" fill="#f9bba0" d="M 153.5,190.5 C 153.586,191.496 153.252,192.329 152.5,193C 150.783,194.559 148.783,195.392 146.5,195.5C 148.55,193.453 150.883,191.786 153.5,190.5 Z"/></g>
<g><path style="opacity:1" fill="#ef7243" d="M 175.5,186.5 C 175.336,189.187 175.503,191.854 176,194.5C 176.671,195.252 177.504,195.586 178.5,195.5C 176.999,197.957 175.332,197.957 173.5,195.5C 173.42,192.219 174.087,189.219 175.5,186.5 Z"/></g>
<g><path style="opacity:1" fill="#facab7" d="M 160.5,199.5 C 159.596,198.791 159.263,197.791 159.5,196.5C 158.295,195.314 156.961,195.314 155.5,196.5C 156.552,194.744 158.219,194.077 160.5,194.5C 160.5,196.167 160.5,197.833 160.5,199.5 Z"/></g>
<g><path style="opacity:1" fill="#f49c77" d="M 220.5,193.5 C 220.027,194.906 219.027,195.573 217.5,195.5C 217.973,194.094 218.973,193.427 220.5,193.5 Z"/></g>
<g><path style="opacity:1" fill="#fac9b3" d="M 227.5,195.5 C 228.568,194.566 229.901,194.232 231.5,194.5C 231.5,196.167 231.5,197.833 231.5,199.5C 230.596,198.791 230.263,197.791 230.5,196.5C 229.791,195.596 228.791,195.263 227.5,195.5 Z"/></g>
<g><path style="opacity:1" fill="#f5a280" d="M 253.5,193.5 C 253.027,194.906 252.027,195.573 250.5,195.5C 250.973,194.094 251.973,193.427 253.5,193.5 Z"/></g>
<g><path style="opacity:1" fill="#f1835a" d="M 245.5,195.5 C 246.833,195.5 248.167,195.5 249.5,195.5C 248.167,198.167 246.833,198.167 245.5,195.5 Z"/></g>
<g><path style="opacity:1" fill="#f07948" d="M 136.5,195.5 C 138.764,196.219 141.097,196.552 143.5,196.5C 143.5,196.833 143.5,197.167 143.5,197.5C 141.5,197.5 139.5,197.5 137.5,197.5C 137.167,196.833 136.833,196.167 136.5,195.5 Z"/></g>
<g><path style="opacity:1" fill="#f8bfa6" d="M 146.5,195.5 C 146.027,196.906 145.027,197.573 143.5,197.5C 143.5,197.167 143.5,196.833 143.5,196.5C 144.391,195.89 145.391,195.557 146.5,195.5 Z"/></g>
<g><path style="opacity:1" fill="#fad4c2" d="M 182.5,193.5 C 182.5,194.5 182.5,195.5 182.5,196.5C 180.325,196.682 178.325,197.349 176.5,198.5C 174.484,198.484 173.484,197.484 173.5,195.5C 175.332,197.957 176.999,197.957 178.5,195.5C 180.062,195.267 181.395,194.6 182.5,193.5 Z"/></g>
<g><path style="opacity:1" fill="#f18253" d="M 206.5,187.5 C 206.833,187.5 207.167,187.5 207.5,187.5C 207.336,190.187 207.503,192.854 208,195.5C 209.699,196.406 211.533,196.739 213.5,196.5C 212.081,197.451 210.415,197.784 208.5,197.5C 207.883,197.389 207.383,197.056 207,196.5C 206.502,193.518 206.335,190.518 206.5,187.5 Z"/></g>
<g><path style="opacity:1" fill="#f59f71" d="M 261.5,195.5 C 261.167,196.5 260.5,197.167 259.5,197.5C 259.5,196.167 260.167,195.5 261.5,195.5 Z"/></g>
<g><path style="opacity:1" fill="#f1835a" d="M 159.5,196.5 C 157.167,197.833 154.833,199.167 152.5,200.5C 153.5,199.167 154.5,197.833 155.5,196.5C 156.961,195.314 158.295,195.314 159.5,196.5 Z"/></g>
<g><path style="opacity:1" fill="#f8c0a7" d="M 216.5,195.5 C 214.385,198.517 211.718,199.184 208.5,197.5C 210.415,197.784 212.081,197.451 213.5,196.5C 214.391,195.89 215.391,195.557 216.5,195.5 Z"/></g>
<g><path style="opacity:1" fill="#f2845c" d="M 227.5,195.5 C 228.791,195.263 229.791,195.596 230.5,196.5C 228.177,197.75 225.844,199.083 223.5,200.5C 224.864,198.809 226.197,197.142 227.5,195.5 Z"/></g>
<g><path style="opacity:1" fill="#f3946f" d="M 185.5,199.5 C 184.738,201.262 183.404,202.262 181.5,202.5C 182.262,200.738 183.596,199.738 185.5,199.5 Z"/></g>
<g><path style="opacity:1" fill="#f49b76" d="M 256.5,199.5 C 255.599,201.727 253.933,202.727 251.5,202.5C 251.5,202.167 251.5,201.833 251.5,201.5C 253.167,200.833 254.833,200.167 256.5,199.5 Z"/></g>
<g><path style="opacity:1" fill="#fac9b4" d="M 124.5,201.5 C 128.24,202.467 132.074,203.134 136,203.5C 140.705,203.561 145.205,202.894 149.5,201.5C 145.383,204.311 140.717,205.644 135.5,205.5C 131.149,205.72 127.483,204.386 124.5,201.5 Z"/></g>
<g><path style="opacity:1" fill="#f7bda4" d="M 164.5,202.5 C 169.5,203.833 174.5,203.833 179.5,202.5C 179.389,203.117 179.056,203.617 178.5,204C 174.167,204.667 169.833,204.667 165.5,204C 164.944,203.617 164.611,203.117 164.5,202.5 Z"/></g>
<g><path style="opacity:1" fill="#f9c5af" d="M 221.5,201.5 C 214.289,205.505 206.623,206.338 198.5,204C 197.944,203.617 197.611,203.117 197.5,202.5C 205.589,203.938 213.589,203.605 221.5,201.5 Z"/></g>
<g><path style="opacity:1" fill="#f9c8b3" d="M 233.5,201.5 C 239.485,204.096 245.485,204.096 251.5,201.5C 251.5,201.833 251.5,202.167 251.5,202.5C 248.737,203.987 245.737,204.654 242.5,204.5C 238.86,204.977 235.86,203.977 233.5,201.5 Z"/></g>
<g><path style="opacity:1" fill="#f5a887" d="M 233.5,230.5 C 229.726,227.738 225.393,226.738 220.5,227.5C 220.5,228.5 220.5,229.5 220.5,230.5C 219.833,230.5 219.5,230.167 219.5,229.5C 219.5,228.5 219.5,227.5 219.5,226.5C 223.514,226.334 227.514,226.501 231.5,227C 232.823,227.816 233.489,228.983 233.5,230.5 Z"/></g>
<g><path style="opacity:1" fill="#f5aa8a" d="M 260.5,227.5 C 264.298,226.517 268.298,226.183 272.5,226.5C 272.737,227.791 272.404,228.791 271.5,229.5C 268.316,227.586 264.649,226.92 260.5,227.5 Z"/></g>
<g><path style="opacity:1" fill="#fefbf9" d="M 166.5,231.5 C 169.167,232.167 170.833,233.833 171.5,236.5C 173.573,243.416 173.906,250.416 172.5,257.5C 170.785,260.072 168.785,262.405 166.5,264.5C 165.486,265.674 164.153,266.34 162.5,266.5C 155.676,267.005 149.009,267.671 142.5,268.5C 141.511,273.975 141.178,279.642 141.5,285.5C 138.5,285.5 135.5,285.5 132.5,285.5C 132.5,266.5 132.5,247.5 132.5,228.5C 140.507,228.334 148.507,228.5 156.5,229C 159.975,229.447 163.309,230.28 166.5,231.5 Z"/></g>
<g><path style="opacity:1" fill="#fef9f7" d="M 204.5,227.5 C 204.12,229.698 204.787,231.365 206.5,232.5C 206.5,232.833 206.5,233.167 206.5,233.5C 207.959,237.461 209.292,241.461 210.5,245.5C 211.686,251.748 214.02,257.414 217.5,262.5C 217.259,264.898 217.926,266.898 219.5,268.5C 219.12,270.698 219.787,272.365 221.5,273.5C 222.488,276.076 223.488,278.743 224.5,281.5C 224.5,282.167 224.5,282.833 224.5,283.5C 223.666,284.748 222.333,285.415 220.5,285.5C 219.167,285.167 217.833,284.833 216.5,284.5C 215.119,282.365 214.119,280.032 213.5,277.5C 212.817,277.137 212.15,276.804 211.5,276.5C 211.5,276.167 211.5,275.833 211.5,275.5C 208.572,274.18 205.239,273.514 201.5,273.5C 198.167,273.667 194.833,273.833 191.5,274C 190.584,274.278 189.918,274.778 189.5,275.5C 188.662,275.842 188.328,276.508 188.5,277.5C 187.069,278.78 186.402,280.447 186.5,282.5C 186.267,284.062 185.6,285.395 184.5,286.5C 181.5,286.5 178.5,286.5 175.5,286.5C 175.5,285.167 175.5,283.833 175.5,282.5C 176.264,279.982 177.264,277.649 178.5,275.5C 179.649,275.209 180.316,274.376 180.5,273C 181.617,270.269 182.283,267.435 182.5,264.5C 184.956,258.234 187.29,251.901 189.5,245.5C 191.308,244.082 191.975,242.082 191.5,239.5C 191.893,237.716 192.559,236.05 193.5,234.5C 195.074,232.898 195.741,230.898 195.5,228.5C 198.391,227.597 201.391,227.264 204.5,227.5 Z"/></g>
<g><path style="opacity:1" fill="#fef8f5" d="M 233.5,230.5 C 234.167,232.5 234.833,234.5 235.5,236.5C 237.845,241.034 240.011,245.7 242,250.5C 242.708,251.381 243.542,252.047 244.5,252.5C 244.694,256.005 245.694,256.338 247.5,253.5C 250.385,250.02 252.385,246.02 253.5,241.5C 253.5,241.167 253.5,240.833 253.5,240.5C 255.104,239.713 255.771,238.38 255.5,236.5C 255.427,234.973 256.094,233.973 257.5,233.5C 258.345,232.329 259.011,230.995 259.5,229.5C 259.328,228.508 259.662,227.842 260.5,227.5C 264.649,226.92 268.316,227.586 271.5,229.5C 271.167,230.167 270.833,230.833 270.5,231.5C 268.73,233.454 267.397,235.787 266.5,238.5C 266.5,238.833 266.5,239.167 266.5,239.5C 265.833,239.5 265.5,239.833 265.5,240.5C 263.58,242.746 262.247,245.413 261.5,248.5C 261.5,248.833 261.5,249.167 261.5,249.5C 259.952,249.821 259.285,250.821 259.5,252.5C 258.833,254.167 258.167,255.833 257.5,257.5C 256.094,257.973 255.427,258.973 255.5,260.5C 254.37,262.315 253.704,264.315 253.5,266.5C 253.167,266.5 252.833,266.5 252.5,266.5C 250.544,272.412 249.877,278.745 250.5,285.5C 247.5,285.5 244.5,285.5 241.5,285.5C 241.822,279.642 241.489,273.975 240.5,268.5C 240.5,268.167 240.5,267.833 240.5,267.5C 239.824,264.135 238.158,261.469 235.5,259.5C 235.5,259.167 235.5,258.833 235.5,258.5C 235.573,256.973 234.906,255.973 233.5,255.5C 233.672,254.508 233.338,253.842 232.5,253.5C 231.568,250.733 230.401,248.067 229,245.5C 228.292,244.619 227.458,243.953 226.5,243.5C 226.5,242.833 226.5,242.167 226.5,241.5C 225.492,239.456 224.492,237.456 223.5,235.5C 222.767,233.706 221.767,232.039 220.5,230.5C 220.5,229.5 220.5,228.5 220.5,227.5C 225.393,226.738 229.726,227.738 233.5,230.5 Z"/></g>
<g><path style="opacity:1" fill="#e94200" d="M 130.5,228.5 C 130.5,247.833 130.5,267.167 130.5,286.5C 129.168,277.023 128.501,267.19 128.5,257C 128.667,247.167 128.833,237.333 129,227.5C 129.383,228.056 129.883,228.389 130.5,228.5 Z"/></g>
<g><path style="opacity:1" fill="#f28e63" d="M 159.5,227.5 C 150.167,227.5 140.833,227.5 131.5,227.5C 131.5,247.167 131.5,266.833 131.5,286.5C 131.167,286.5 130.833,286.5 130.5,286.5C 130.5,267.167 130.5,247.833 130.5,228.5C 134.951,227.173 139.784,226.506 145,226.5C 150.012,226.501 154.845,226.834 159.5,227.5 Z"/></g>
<g><path style="opacity:1" fill="#fad6c6" d="M 159.5,227.5 C 162.424,227.898 164.758,229.231 166.5,231.5C 163.309,230.28 159.975,229.447 156.5,229C 148.507,228.5 140.507,228.334 132.5,228.5C 132.5,247.5 132.5,266.5 132.5,285.5C 135.5,285.5 138.5,285.5 141.5,285.5C 141.5,285.833 141.5,286.167 141.5,286.5C 138.167,286.5 134.833,286.5 131.5,286.5C 131.5,266.833 131.5,247.167 131.5,227.5C 140.833,227.5 150.167,227.5 159.5,227.5 Z"/></g>
<g><path style="opacity:1" fill="#f6a483" d="M 257.5,229.5 C 258.167,229.5 258.833,229.5 259.5,229.5C 259.011,230.995 258.345,232.329 257.5,233.5C 257.5,232.167 257.5,230.833 257.5,229.5 Z"/></g>
<g><path style="opacity:1" fill="#fce3d7" d="M 158.5,237.5 C 157.833,237.5 157.167,237.5 156.5,237.5C 152.03,236.514 147.363,236.181 142.5,236.5C 144.571,235.191 147.071,234.525 150,234.5C 152.5,234.833 155,235.167 157.5,235.5C 157.863,236.183 158.196,236.85 158.5,237.5 Z"/></g>
<g><path style="opacity:1" fill="#f6ab8c" d="M 270.5,231.5 C 270.186,234.489 268.852,236.822 266.5,238.5C 267.397,235.787 268.73,233.454 270.5,231.5 Z"/></g>
<g><path style="opacity:1" fill="#f2865c" d="M 223.5,235.5 C 224.492,237.456 225.492,239.456 226.5,241.5C 224.025,240.313 223.025,238.313 223.5,235.5 Z"/></g>
<g><path style="opacity:1" fill="#f2926c" d="M 255.5,236.5 C 255.771,238.38 255.104,239.713 253.5,240.5C 253.66,238.847 254.326,237.514 255.5,236.5 Z"/></g>
<g><path style="opacity:1" fill="#f5aa8a" d="M 142.5,236.5 C 147.363,236.181 152.03,236.514 156.5,237.5C 151.833,237.5 147.167,237.5 142.5,237.5C 142.5,244.167 142.5,250.833 142.5,257.5C 141.167,250.5 141.167,243.5 142.5,236.5 Z"/></g>
<g><path style="opacity:1" fill="#ed632e" d="M 156.5,237.5 C 157.167,237.5 157.833,237.5 158.5,237.5C 158.5,237.833 158.5,238.167 158.5,238.5C 153.5,238.5 148.5,238.5 143.5,238.5C 143.5,244.833 143.5,251.167 143.5,257.5C 147.833,257.5 152.167,257.5 156.5,257.5C 152.03,258.486 147.363,258.819 142.5,258.5C 142.5,258.167 142.5,257.833 142.5,257.5C 142.5,250.833 142.5,244.167 142.5,237.5C 147.167,237.5 151.833,237.5 156.5,237.5 Z"/></g>
<g><path style="opacity:1" fill="#ea5109" d="M 158.5,238.5 C 159.872,239.512 161.205,240.512 162.5,241.5C 164.268,244.162 164.935,247.162 164.5,250.5C 163.094,250.973 162.427,251.973 162.5,253.5C 161.167,254.833 159.833,256.167 158.5,257.5C 158.586,256.504 158.252,255.671 157.5,255C 153.789,254.825 150.122,254.325 146.5,253.5C 147.332,249.673 147.332,245.673 146.5,241.5C 150.38,240.205 154.214,240.205 158,241.5C 158.483,240.552 158.649,239.552 158.5,238.5 Z"/></g>
<g><path style="opacity:1" fill="#fea102" d="M 323.5,242.5 C 324.873,244.207 326.539,245.54 328.5,246.5C 328.5,247.167 328.5,247.833 328.5,248.5C 328.5,254.167 328.5,259.833 328.5,265.5C 328.169,267.322 327.502,268.989 326.5,270.5C 325.449,271.222 324.782,272.222 324.5,273.5C 324.167,273.5 323.833,273.5 323.5,273.5C 322.833,273.833 322.167,274.167 321.5,274.5C 321.649,273.448 321.483,272.448 321,271.5C 318.006,274.448 314.34,275.782 310,275.5C 307.5,275.333 305,275.167 302.5,275C 300.067,273.368 297.567,271.868 295,270.5C 294.235,270.57 293.735,270.903 293.5,271.5C 292,270.375 290.667,269.041 289.5,267.5C 288.491,262.204 288.324,256.871 289,251.5C 291.464,246.884 294.631,242.884 298.5,239.5C 299.347,238.034 300.68,237.2 302.5,237C 310.682,235.069 317.682,236.903 323.5,242.5 Z"/></g>
<g><path style="opacity:1" fill="#e94201" d="M 158.5,238.5 C 158.649,239.552 158.483,240.552 158,241.5C 154.214,240.205 150.38,240.205 146.5,241.5C 147.332,245.673 147.332,249.673 146.5,253.5C 150.122,254.325 153.789,254.825 157.5,255C 158.252,255.671 158.586,256.504 158.5,257.5C 157.833,257.5 157.167,257.5 156.5,257.5C 152.167,257.5 147.833,257.5 143.5,257.5C 143.5,251.167 143.5,244.833 143.5,238.5C 148.5,238.5 153.5,238.5 158.5,238.5 Z"/></g>
<g><path style="opacity:1" fill="#f49973" d="M 206.5,233.5 C 208.727,234.401 209.727,236.067 209.5,238.5C 210.933,240.558 211.6,242.892 211.5,245.5C 211.167,245.5 210.833,245.5 210.5,245.5C 209.292,241.461 207.959,237.461 206.5,233.5 Z"/></g>
<g><path style="opacity:1" fill="#f6aa8c" d="M 235.5,236.5 C 235.833,236.5 236.167,236.5 236.5,236.5C 239.358,241.741 242.024,247.074 244.5,252.5C 243.542,252.047 242.708,251.381 242,250.5C 240.011,245.7 237.845,241.034 235.5,236.5 Z"/></g>
<g><path style="opacity:1" fill="#f38e61" d="M 266.5,239.5 C 266.771,241.38 266.104,242.713 264.5,243.5C 264.557,242.391 264.89,241.391 265.5,240.5C 265.5,239.833 265.833,239.5 266.5,239.5 Z"/></g>
<g><path style="opacity:1" fill="#facbb6" d="M 191.5,239.5 C 191.975,242.082 191.308,244.082 189.5,245.5C 189.875,243.302 190.542,241.302 191.5,239.5 Z"/></g>
<g><path style="opacity:1" fill="#f9c8b2" d="M 202.5,246.5 C 202.167,246.5 201.833,246.5 201.5,246.5C 200.811,245.226 199.977,245.226 199,246.5C 198.51,247.793 198.343,249.127 198.5,250.5C 198.167,250.5 197.833,250.5 197.5,250.5C 197.261,248.533 197.594,246.699 198.5,245C 200.463,244.156 201.796,244.656 202.5,246.5 Z"/></g>
<g><path style="opacity:1" fill="#e94006" d="M 219.5,229.5 C 219.5,230.167 219.833,230.5 220.5,230.5C 221.767,232.039 222.767,233.706 223.5,235.5C 223.025,238.313 224.025,240.313 226.5,241.5C 226.5,242.167 226.5,242.833 226.5,243.5C 227.59,247.509 229.59,250.842 232.5,253.5C 232.468,259.58 231.302,259.913 229,254.5C 225.363,246.708 221.53,239.041 217.5,231.5C 217.747,230.287 218.414,229.62 219.5,229.5 Z"/></g>
<g><path style="opacity:1" fill="#fbdacb" d="M 171.5,236.5 C 172.906,236.973 173.573,237.973 173.5,239.5C 174.383,244.103 174.717,248.77 174.5,253.5C 174.167,254.833 173.833,256.167 173.5,257.5C 173.167,257.5 172.833,257.5 172.5,257.5C 173.906,250.416 173.573,243.416 171.5,236.5 Z"/></g>
<g><path style="opacity:1" fill="#f5a684" d="M 173.5,239.5 C 174.117,239.611 174.617,239.944 175,240.5C 175.814,245.02 175.647,249.354 174.5,253.5C 174.717,248.77 174.383,244.103 173.5,239.5 Z"/></g>
<g><path style="opacity:1" fill="#e9430f" d="M 257.5,229.5 C 257.5,230.833 257.5,232.167 257.5,233.5C 256.094,233.973 255.427,234.973 255.5,236.5C 254.326,237.514 253.66,238.847 253.5,240.5C 253.5,240.833 253.5,241.167 253.5,241.5C 252.542,241.953 251.708,242.619 251,243.5C 249.614,246.733 248.447,250.066 247.5,253.5C 245.694,256.338 244.694,256.005 244.5,252.5C 242.024,247.074 239.358,241.741 236.5,236.5C 236.579,235.07 236.246,233.736 235.5,232.5C 236.325,231.614 237.325,231.281 238.5,231.5C 240.471,237.259 242.804,242.926 245.5,248.5C 249.11,242.415 252.277,236.082 255,229.5C 255.977,228.226 256.811,228.226 257.5,229.5 Z"/></g>
<g><path style="opacity:1" fill="#ea4e14" d="M 209.5,238.5 C 209.727,236.067 208.727,234.401 206.5,233.5C 206.5,233.167 206.5,232.833 206.5,232.5C 206.88,230.302 206.213,228.635 204.5,227.5C 203.207,226.842 201.707,226.508 200,226.5C 198.014,226.569 196.514,227.235 195.5,228.5C 193.926,230.102 193.259,232.102 193.5,234.5C 192.559,236.05 191.893,237.716 191.5,239.5C 190.542,241.302 189.875,243.302 189.5,245.5C 187.29,251.901 184.956,258.234 182.5,264.5C 182.167,264.5 181.833,264.5 181.5,264.5C 181.66,262.801 181.494,261.134 181,259.5C 180.346,260.696 179.846,260.696 179.5,259.5C 182.507,253.491 184.674,247.158 186,240.5C 188.581,237.251 190.247,233.585 191,229.5C 193,226.833 195,224.167 197,221.5C 198.974,221.626 201.141,221.792 203.5,222C 205.402,223.771 207.235,225.605 209,227.5C 209.514,230.028 210.68,232.195 212.5,234C 212.085,236.026 211.085,237.526 209.5,238.5 Z"/></g>
<g><path style="opacity:1" fill="#f8b69b" d="M 204.5,227.5 C 206.213,228.635 206.88,230.302 206.5,232.5C 204.787,231.365 204.12,229.698 204.5,227.5 Z"/></g>
<g><path style="opacity:1" fill="#f7ac8d" d="M 195.5,228.5 C 195.741,230.898 195.074,232.898 193.5,234.5C 193.259,232.102 193.926,230.102 195.5,228.5 Z"/></g>
<g><path style="opacity:1" fill="#f5a988" d="M 204.5,227.5 C 201.391,227.264 198.391,227.597 195.5,228.5C 196.514,227.235 198.014,226.569 200,226.5C 201.707,226.508 203.207,226.842 204.5,227.5 Z"/></g>
<g><path style="opacity:1" fill="#f9c3ab" d="M 265.5,240.5 C 264.89,241.391 264.557,242.391 264.5,243.5C 263.89,245.434 262.89,247.101 261.5,248.5C 262.247,245.413 263.58,242.746 265.5,240.5 Z"/></g>
<g><path style="opacity:1" fill="#fad0bd" d="M 162.5,241.5 C 163.496,241.414 164.329,241.748 165,242.5C 165.167,244.333 165.333,246.167 165.5,248C 165.453,250.295 164.787,252.129 163.5,253.5C 164.11,252.609 164.443,251.609 164.5,250.5C 164.935,247.162 164.268,244.162 162.5,241.5 Z"/></g>
<g><path style="opacity:1" fill="#f39269" d="M 201.5,246.5 C 200.143,247.59 199.143,248.924 198.5,250.5C 198.343,249.127 198.51,247.793 199,246.5C 199.977,245.226 200.811,245.226 201.5,246.5 Z"/></g>
<g><path style="opacity:1" fill="#ef7242" d="M 226.5,243.5 C 227.458,243.953 228.292,244.619 229,245.5C 230.401,248.067 231.568,250.733 232.5,253.5C 229.59,250.842 227.59,247.509 226.5,243.5 Z"/></g>
<g><path style="opacity:1" fill="#f6a584" d="M 253.5,241.5 C 252.385,246.02 250.385,250.02 247.5,253.5C 248.447,250.066 249.614,246.733 251,243.5C 251.708,242.619 252.542,241.953 253.5,241.5 Z"/></g>
<g><path style="opacity:1" fill="#ed7304" d="M 298.5,239.5 C 294.631,242.884 291.464,246.884 289,251.5C 288.324,256.871 288.491,262.204 289.5,267.5C 288.069,266.22 287.402,264.553 287.5,262.5C 287.069,256.977 287.736,251.644 289.5,246.5C 291.949,243.444 294.949,241.111 298.5,239.5 Z"/></g>
<g><path style="opacity:1" fill="#f7b597" d="M 261.5,249.5 C 261.068,250.71 260.401,251.71 259.5,252.5C 259.285,250.821 259.952,249.821 261.5,249.5 Z"/></g>
<g><path style="opacity:1" fill="#f3966e" d="M 164.5,250.5 C 164.443,251.609 164.11,252.609 163.5,253.5C 163.167,253.5 162.833,253.5 162.5,253.5C 162.427,251.973 163.094,250.973 164.5,250.5 Z"/></g>
<g><path style="opacity:1" fill="#fac6b0" d="M 202.5,250.5 C 203.5,250.5 204.5,250.5 205.5,250.5C 205.46,253.881 205.793,257.214 206.5,260.5C 205.883,260.389 205.383,260.056 205,259.5C 204.799,256.247 203.966,253.247 202.5,250.5 Z"/></g>
<g><path style="opacity:1" fill="#facbb6" d="M 210.5,245.5 C 210.833,245.5 211.167,245.5 211.5,245.5C 213.789,251.076 215.789,256.743 217.5,262.5C 214.02,257.414 211.686,251.748 210.5,245.5 Z"/></g>
<g><path style="opacity:1" fill="#ffb444" d="M 328.5,248.5 C 328.833,248.5 329.167,248.5 329.5,248.5C 329.5,249.167 329.5,249.833 329.5,250.5C 330.833,255.5 330.833,260.5 329.5,265.5C 329.167,265.5 328.833,265.5 328.5,265.5C 328.5,259.833 328.5,254.167 328.5,248.5 Z"/></g>
<g><path style="opacity:1" fill="#fee0ad" d="M 329.5,250.5 C 330.117,250.611 330.617,250.944 331,251.5C 331.667,255.833 331.667,260.167 331,264.5C 330.617,265.056 330.117,265.389 329.5,265.5C 330.833,260.5 330.833,255.5 329.5,250.5 Z"/></g>
<g><path style="opacity:1" fill="#f0794e" d="M 69.5,251.5 C 70.1667,252.167 70.8333,252.833 71.5,253.5C 71.5,256.167 71.5,258.833 71.5,261.5C 71.5,262.833 71.5,264.167 71.5,265.5C 70.596,264.791 70.2627,263.791 70.5,262.5C 69.8857,258.865 69.5524,255.198 69.5,251.5 Z"/></g>
<g><path style="opacity:1" fill="#f49974" d="M 197.5,250.5 C 197.833,250.5 198.167,250.5 198.5,250.5C 198.975,253.313 197.975,255.313 195.5,256.5C 196.63,254.685 197.296,252.685 197.5,250.5 Z"/></g>
<g><path style="opacity:1" fill="#f9cab5" d="M 68.5,249.5 C 68.8333,249.5 69.1667,249.5 69.5,249.5C 69.5,250.167 69.5,250.833 69.5,251.5C 69.5524,255.198 69.8857,258.865 70.5,262.5C 68.5698,258.627 67.9031,254.294 68.5,249.5 Z"/></g>
<g><path style="opacity:1" fill="#f49c76" d="M 233.5,255.5 C 234.906,255.973 235.573,256.973 235.5,258.5C 234.094,258.027 233.427,257.027 233.5,255.5 Z"/></g>
<g><path style="opacity:1" fill="#d83f04" d="M 285.5,251.5 C 286.167,255.167 286.833,258.833 287.5,262.5C 287.402,264.553 288.069,266.22 289.5,267.5C 290.667,269.041 292,270.375 293.5,271.5C 294.326,273.264 295.659,274.598 297.5,275.5C 300.247,278.944 303.914,280.278 308.5,279.5C 312.695,279.961 316.362,278.961 319.5,276.5C 319.5,275.833 319.833,275.5 320.5,275.5C 321.623,277.688 321.623,280.021 320.5,282.5C 319.542,284.302 318.875,286.302 318.5,288.5C 318.167,288.5 317.833,288.5 317.5,288.5C 317.646,286.058 316.813,285.391 315,286.5C 306.429,305.404 293.263,320.238 275.5,331C 274.226,331.977 274.226,332.811 275.5,333.5C 275.167,334.167 274.833,334.833 274.5,335.5C 274.167,335.5 273.833,335.5 273.5,335.5C 273.53,334.503 273.03,333.836 272,333.5C 253.878,341.948 234.712,345.614 214.5,344.5C 214.5,344.167 214.5,343.833 214.5,343.5C 218.394,342.058 222.394,340.891 226.5,340C 232.323,336.846 237.99,333.513 243.5,330C 260.113,318.023 272.113,302.69 279.5,284C 278.51,280.838 277.344,277.671 276,274.5C 274.561,264.955 277.728,257.289 285.5,251.5 Z"/></g>
<g><path style="opacity:1" fill="#f7b99e" d="M 162.5,253.5 C 162.833,253.5 163.167,253.5 163.5,253.5C 162.364,256.131 160.364,257.964 157.5,259C 152.316,259.816 147.316,259.65 142.5,258.5C 147.363,258.819 152.03,258.486 156.5,257.5C 157.167,257.5 157.833,257.5 158.5,257.5C 159.833,256.167 161.167,254.833 162.5,253.5 Z"/></g>
<g><path style="opacity:1" fill="#f2855d" d="M 172.5,257.5 C 172.833,257.5 173.167,257.5 173.5,257.5C 172.5,261.167 170.167,263.5 166.5,264.5C 168.785,262.405 170.785,260.072 172.5,257.5 Z"/></g>
<g><path style="opacity:1" fill="#f39066" d="M 257.5,257.5 C 257.573,259.027 256.906,260.027 255.5,260.5C 255.427,258.973 256.094,257.973 257.5,257.5 Z"/></g>
<g><path style="opacity:1" fill="#e94812" d="M 201.5,246.5 C 201.833,246.5 202.167,246.5 202.5,246.5C 202.5,247.833 202.5,249.167 202.5,250.5C 203.966,253.247 204.799,256.247 205,259.5C 205.383,260.056 205.883,260.389 206.5,260.5C 206.5,260.833 206.5,261.167 206.5,261.5C 206.5,262.5 206.5,263.5 206.5,264.5C 202.445,264.824 198.445,264.491 194.5,263.5C 194.863,262.817 195.196,262.15 195.5,261.5C 195.5,260.167 195.5,258.833 195.5,257.5C 195.5,257.167 195.5,256.833 195.5,256.5C 197.975,255.313 198.975,253.313 198.5,250.5C 199.143,248.924 200.143,247.59 201.5,246.5 Z"/></g>
<g><path style="opacity:1" fill="#f9baa1" d="M 235.5,259.5 C 238.158,261.469 239.824,264.135 240.5,267.5C 239.542,267.047 238.708,266.381 238,265.5C 237.415,263.339 236.582,261.339 235.5,259.5 Z"/></g>
<g><path style="opacity:1" fill="#f07d53" d="M 195.5,261.5 C 195.196,262.15 194.863,262.817 194.5,263.5C 198.445,264.491 202.445,264.824 206.5,264.5C 202.366,265.485 198.032,265.818 193.5,265.5C 193.157,263.517 193.824,262.183 195.5,261.5 Z"/></g>
<g><path style="opacity:1" fill="#f4ac8f" d="M 206.5,261.5 C 207.167,261.5 207.5,261.833 207.5,262.5C 207.5,263.833 207.5,265.167 207.5,266.5C 202.637,266.819 197.97,266.486 193.5,265.5C 198.032,265.818 202.366,265.485 206.5,264.5C 206.5,263.5 206.5,262.5 206.5,261.5 Z"/></g>
<g><path style="opacity:1" fill="#f8b89d" d="M 217.5,262.5 C 219.074,264.102 219.741,266.102 219.5,268.5C 217.926,266.898 217.259,264.898 217.5,262.5 Z"/></g>
<g><path style="opacity:1" fill="#fbddd0" d="M 195.5,257.5 C 195.5,258.833 195.5,260.167 195.5,261.5C 193.824,262.183 193.157,263.517 193.5,265.5C 197.97,266.486 202.637,266.819 207.5,266.5C 207.5,265.167 207.5,263.833 207.5,262.5C 209.71,263.455 210.043,264.955 208.5,267C 203.177,267.499 197.844,267.666 192.5,267.5C 191.976,263.572 192.976,260.239 195.5,257.5 Z"/></g>
<g><path style="opacity:1" fill="#f9c7b1" d="M 162.5,266.5 C 161.5,267.167 160.5,267.833 159.5,268.5C 153.833,268.5 148.167,268.5 142.5,268.5C 149.009,267.671 155.676,267.005 162.5,266.5 Z"/></g>
<g><path style="opacity:1" fill="#f9bea5" d="M 181.5,264.5 C 181.833,264.5 182.167,264.5 182.5,264.5C 182.283,267.435 181.617,270.269 180.5,273C 180.316,274.376 179.649,275.209 178.5,275.5C 179.344,271.789 180.344,268.123 181.5,264.5 Z"/></g>
<g><path style="opacity:1" fill="#ffdea5" d="M 328.5,265.5 C 328.833,265.5 329.167,265.5 329.5,265.5C 329.759,267.989 328.759,269.656 326.5,270.5C 327.502,268.989 328.169,267.322 328.5,265.5 Z"/></g>
<g><path style="opacity:1" fill="#f28e69" d="M 71.5,267.5 C 73.2132,268.635 73.8799,270.302 73.5,272.5C 72.8333,271.5 72.1667,270.5 71.5,269.5C 71.5,268.833 71.5,268.167 71.5,267.5 Z"/></g>
<g><path style="opacity:1" fill="#f8c0a8" d="M 219.5,268.5 C 220.537,269.93 221.204,271.597 221.5,273.5C 219.787,272.365 219.12,270.698 219.5,268.5 Z"/></g>
<g><path style="opacity:1" fill="#ef743d" d="M 252.5,266.5 C 252.833,266.5 253.167,266.5 253.5,266.5C 252.906,273.299 252.239,279.966 251.5,286.5C 251.207,279.745 251.54,273.078 252.5,266.5 Z"/></g>
<g><path style="opacity:1" fill="#f5a07c" d="M 142.5,268.5 C 148.167,268.5 153.833,268.5 159.5,268.5C 154.025,269.489 148.358,269.822 142.5,269.5C 142.822,275.358 142.489,281.025 141.5,286.5C 141.5,286.167 141.5,285.833 141.5,285.5C 141.178,279.642 141.511,273.975 142.5,268.5 Z"/></g>
<g><path style="opacity:1" fill="#f9c1aa" d="M 211.5,275.5 C 204.167,275.5 196.833,275.5 189.5,275.5C 189.918,274.778 190.584,274.278 191.5,274C 194.833,273.833 198.167,273.667 201.5,273.5C 205.239,273.514 208.572,274.18 211.5,275.5 Z"/></g>
<g><path style="opacity:1" fill="#f8c3ab" d="M 252.5,266.5 C 251.54,273.078 251.207,279.745 251.5,286.5C 247.833,286.5 244.167,286.5 240.5,286.5C 240.5,280.5 240.5,274.5 240.5,268.5C 241.489,273.975 241.822,279.642 241.5,285.5C 244.5,285.5 247.5,285.5 250.5,285.5C 249.877,278.745 250.544,272.412 252.5,266.5 Z"/></g>
<g><path style="opacity:1" fill="#fad1bf" d="M 71.5,269.5 C 72.1667,270.5 72.8333,271.5 73.5,272.5C 73.8782,274.921 74.5448,277.254 75.5,279.5C 75.5,280.167 75.5,280.833 75.5,281.5C 72.8033,278.101 71.4699,274.101 71.5,269.5 Z"/></g>
<g><path style="opacity:1" fill="#ed6233" d="M 189.5,275.5 C 196.833,275.5 204.167,275.5 211.5,275.5C 211.5,275.833 211.5,276.167 211.5,276.5C 211.833,277.833 212.167,279.167 212.5,280.5C 210.896,279.713 210.229,278.38 210.5,276.5C 203.5,276.5 196.5,276.5 189.5,276.5C 189.5,278.833 189.5,281.167 189.5,283.5C 187.952,283.821 187.285,284.821 187.5,286.5C 186.5,286.5 185.5,286.5 184.5,286.5C 185.6,285.395 186.267,284.062 186.5,282.5C 187.931,281.22 188.598,279.553 188.5,277.5C 188.328,276.508 188.662,275.842 189.5,275.5 Z"/></g>
<g><path style="opacity:1" fill="#feae03" d="M 321.5,274.5 C 320.833,274.5 320.5,274.833 320.5,275.5C 319.833,275.5 319.5,275.833 319.5,276.5C 311.969,278.153 304.636,277.819 297.5,275.5C 295.659,274.598 294.326,273.264 293.5,271.5C 293.735,270.903 294.235,270.57 295,270.5C 297.567,271.868 300.067,273.368 302.5,275C 305,275.167 307.5,275.333 310,275.5C 314.34,275.782 318.006,274.448 321,271.5C 321.483,272.448 321.649,273.448 321.5,274.5 Z"/></g>
<g><path style="opacity:1" fill="#e6693b" d="M 323.5,273.5 C 322.85,275.435 322.517,277.435 322.5,279.5C 322.573,281.027 321.906,282.027 320.5,282.5C 321.623,280.021 321.623,277.688 320.5,275.5C 320.5,274.833 320.833,274.5 321.5,274.5C 322.167,274.167 322.833,273.833 323.5,273.5 Z"/></g>
<g><path style="opacity:1" fill="#f3ab8f" d="M 323.5,273.5 C 323.833,273.5 324.167,273.5 324.5,273.5C 324.741,275.898 324.074,277.898 322.5,279.5C 322.517,277.435 322.85,275.435 323.5,273.5 Z"/></g>
<g><path style="opacity:1" fill="#e83b00" d="M 212.5,280.5 C 212.5,280.833 212.5,281.167 212.5,281.5C 212.785,283.288 212.452,284.955 211.5,286.5C 210.366,283.833 209.366,281.167 208.5,278.5C 202.833,278.5 197.167,278.5 191.5,278.5C 191.923,280.781 191.256,282.448 189.5,283.5C 189.5,281.167 189.5,278.833 189.5,276.5C 196.5,276.5 203.5,276.5 210.5,276.5C 210.229,278.38 210.896,279.713 212.5,280.5 Z"/></g>
<g><path style="opacity:1" fill="#f58904" d="M 297.5,275.5 C 304.636,277.819 311.969,278.153 319.5,276.5C 316.362,278.961 312.695,279.961 308.5,279.5C 303.914,280.278 300.247,278.944 297.5,275.5 Z"/></g>
<g><path style="opacity:1" fill="#f7bba2" d="M 188.5,277.5 C 188.598,279.553 187.931,281.22 186.5,282.5C 186.402,280.447 187.069,278.78 188.5,277.5 Z"/></g>
<g><path style="opacity:1" fill="#f68604" d="M 101.5,280.5 C 96.1563,280.334 90.8229,280.501 85.5,281C 82.9096,282.445 80.243,283.612 77.5,284.5C 77.5,284.167 77.5,283.833 77.5,283.5C 79.6968,282.155 82.0302,280.989 84.5,280C 90.3487,279.182 96.0154,279.348 101.5,280.5 Z"/></g>
<g><path style="opacity:1" fill="#feaa06" d="M 101.5,280.5 C 109.163,282.138 115.497,285.805 120.5,291.5C 121.08,293.749 122.413,295.415 124.5,296.5C 128.652,303.293 130.652,310.793 130.5,319C 130.824,323.532 129.491,327.366 126.5,330.5C 128.926,322.228 129.093,313.895 127,305.5C 126.691,306.766 126.191,307.933 125.5,309C 127.296,316.448 126.63,323.615 123.5,330.5C 123.747,331.713 124.414,332.38 125.5,332.5C 124.766,333.708 124.433,335.041 124.5,336.5C 124.167,337.167 123.833,337.833 123.5,338.5C 122.833,338.833 122.167,339.167 121.5,339.5C 121.719,338.325 121.386,337.325 120.5,336.5C 107.291,349.44 92.2915,351.94 75.5,344C 62.1221,332.134 58.4554,317.968 64.5,301.5C 64.2528,300.287 63.5862,299.62 62.5,299.5C 63.6298,297.685 64.2964,295.685 64.5,293.5C 65.6366,292.211 66.9699,291.211 68.5,290.5C 72.0637,289.936 74.3971,287.936 75.5,284.5C 76.1667,284.5 76.8333,284.5 77.5,284.5C 80.243,283.612 82.9096,282.445 85.5,281C 90.8229,280.501 96.1563,280.334 101.5,280.5 Z"/></g>
<g><path style="opacity:1" fill="#f6a782" d="M 75.5,279.5 C 76.6737,280.514 77.3404,281.847 77.5,283.5C 77.5,283.833 77.5,284.167 77.5,284.5C 76.8333,284.5 76.1667,284.5 75.5,284.5C 75.5,283.5 75.5,282.5 75.5,281.5C 75.5,280.833 75.5,280.167 75.5,279.5 Z"/></g>
<g><path style="opacity:1" fill="#fbd4c3" d="M 211.5,276.5 C 212.15,276.804 212.817,277.137 213.5,277.5C 214.119,280.032 215.119,282.365 216.5,284.5C 217.833,284.833 219.167,285.167 220.5,285.5C 222.333,285.415 223.666,284.748 224.5,283.5C 225.404,284.209 225.737,285.209 225.5,286.5C 222.167,286.5 218.833,286.5 215.5,286.5C 214.64,284.712 213.64,283.045 212.5,281.5C 212.5,281.167 212.5,280.833 212.5,280.5C 212.167,279.167 211.833,277.833 211.5,276.5 Z"/></g>
<g><path style="opacity:1" fill="#f28a5d" d="M 175.5,282.5 C 175.5,283.833 175.5,285.167 175.5,286.5C 178.5,286.5 181.5,286.5 184.5,286.5C 181.36,287.641 178.027,287.808 174.5,287C 173.447,285.251 173.78,283.751 175.5,282.5 Z"/></g>
<g><path style="opacity:1" fill="#f18757" d="M 224.5,281.5 C 226.28,282.99 226.946,284.99 226.5,287.5C 222.629,287.815 218.962,287.482 215.5,286.5C 218.833,286.5 222.167,286.5 225.5,286.5C 225.737,285.209 225.404,284.209 224.5,283.5C 224.5,282.833 224.5,282.167 224.5,281.5 Z"/></g>
<g><path style="opacity:1" fill="#ffb94d" d="M 75.5,284.5 C 74.3971,287.936 72.0637,289.936 68.5,290.5C 69.899,287.436 72.2324,285.436 75.5,284.5 Z"/></g>
<g><path style="opacity:1" fill="#f5af96" d="M 320.5,282.5 C 320.975,285.082 320.308,287.082 318.5,288.5C 318.875,286.302 319.542,284.302 320.5,282.5 Z"/></g>
<g><path style="opacity:1" fill="#d52f0b" d="M 317.5,288.5 C 316.833,290.167 316.167,291.833 315.5,293.5C 315.771,295.38 315.104,296.713 313.5,297.5C 311.336,299.822 309.669,302.489 308.5,305.5C 308.5,306.167 308.167,306.5 307.5,306.5C 302.409,311.582 297.743,316.916 293.5,322.5C 290.527,323.81 288.193,325.81 286.5,328.5C 286.167,328.5 285.833,328.5 285.5,328.5C 282.164,330.172 278.83,331.838 275.5,333.5C 274.226,332.811 274.226,331.977 275.5,331C 293.263,320.238 306.429,305.404 315,286.5C 316.813,285.391 317.646,286.058 317.5,288.5 Z"/></g>
<g><path style="opacity:1" fill="#d83f04" d="M 145.5,341.5 C 144.957,341.56 144.624,341.893 144.5,342.5C 145.949,343.172 147.282,343.839 148.5,344.5C 147.167,344.5 145.833,344.5 144.5,344.5C 144.167,344.5 143.833,344.5 143.5,344.5C 140.482,342.6 137.149,341.267 133.5,340.5C 130.947,338.416 127.947,337.083 124.5,336.5C 124.433,335.041 124.766,333.708 125.5,332.5C 126.338,332.158 126.672,331.492 126.5,330.5C 129.491,327.366 130.824,323.532 130.5,319C 130.652,310.793 128.652,303.293 124.5,296.5C 123.92,294.251 122.587,292.585 120.5,291.5C 120.297,289.956 119.63,288.622 118.5,287.5C 119.333,287.167 120.167,286.833 121,286.5C 132.871,289.271 141.871,295.938 148,306.5C 150.676,318.538 149.842,330.204 145.5,341.5 Z"/></g>
<g><path style="opacity:1" fill="#ef967c" d="M 317.5,288.5 C 317.833,288.5 318.167,288.5 318.5,288.5C 318.759,290.989 317.759,292.656 315.5,293.5C 316.167,291.833 316.833,290.167 317.5,288.5 Z"/></g>
<g><path style="opacity:1" fill="#f38a04" d="M 120.5,291.5 C 122.587,292.585 123.92,294.251 124.5,296.5C 122.413,295.415 121.08,293.749 120.5,291.5 Z"/></g>
<g><path style="opacity:1" fill="#ffdca2" d="M 64.5,293.5 C 64.2964,295.685 63.6298,297.685 62.5,299.5C 61.2719,300.306 60.2719,301.306 59.5,302.5C 60.3901,299.052 62.0568,296.052 64.5,293.5 Z"/></g>
<g><path style="opacity:1" fill="#f3a98f" d="M 313.5,297.5 C 312.849,300.803 311.182,303.47 308.5,305.5C 309.669,302.489 311.336,299.822 313.5,297.5 Z"/></g>
<g><path style="opacity:1" fill="#feb803" d="M 126.5,330.5 C 126.672,331.492 126.338,332.158 125.5,332.5C 124.414,332.38 123.747,331.713 123.5,330.5C 126.63,323.615 127.296,316.448 125.5,309C 126.191,307.933 126.691,306.766 127,305.5C 129.093,313.895 128.926,322.228 126.5,330.5 Z"/></g>
<g><path style="opacity:1" fill="#f1a78e" d="M 307.5,306.5 C 307.649,307.552 307.483,308.552 307,309.5C 302.92,314.388 298.42,318.721 293.5,322.5C 297.743,316.916 302.409,311.582 307.5,306.5 Z"/></g>
<g><path style="opacity:1" fill="#ffd082" d="M 59.5,303.5 C 58.1667,311.833 58.1667,320.167 59.5,328.5C 58.7784,328.082 58.2784,327.416 58,326.5C 57.3333,319.5 57.3333,312.5 58,305.5C 58.2784,304.584 58.7784,303.918 59.5,303.5 Z"/></g>
<g><path style="opacity:1" fill="#f6baa3" d="M 293.5,322.5 C 291.781,325.219 289.447,327.219 286.5,328.5C 288.193,325.81 290.527,323.81 293.5,322.5 Z"/></g>
<g><path style="opacity:1" fill="#ffe7c3" d="M 59.5,329.5 C 61.7785,332.59 63.7785,335.923 65.5,339.5C 62.2705,336.984 60.2705,333.65 59.5,329.5 Z"/></g>
<g><path style="opacity:1" fill="#ed9378" d="M 285.5,328.5 C 282.621,332.041 278.954,334.374 274.5,335.5C 274.833,334.833 275.167,334.167 275.5,333.5C 278.83,331.838 282.164,330.172 285.5,328.5 Z"/></g>
<g><path style="opacity:1" fill="#ef9c81" d="M 124.5,336.5 C 127.947,337.083 130.947,338.416 133.5,340.5C 130.316,339.357 126.983,338.691 123.5,338.5C 123.833,337.833 124.167,337.167 124.5,336.5 Z"/></g>
<g><path style="opacity:1" fill="#f4af96" d="M 273.5,335.5 C 273.833,335.5 274.167,335.5 274.5,335.5C 273.313,337.975 271.313,338.975 268.5,338.5C 270.22,337.692 271.887,336.692 273.5,335.5 Z"/></g>
<g><path style="opacity:1" fill="#ef9576" d="M 133.5,340.5 C 137.149,341.267 140.482,342.6 143.5,344.5C 139.642,344.23 136.309,342.897 133.5,340.5 Z"/></g>
<g><path style="opacity:1" fill="#f4b7a2" d="M 268.5,338.5 C 266.751,341.375 264.085,342.708 260.5,342.5C 262.849,340.659 265.515,339.326 268.5,338.5 Z"/></g>
<g><path style="opacity:1" fill="#eb9075" d="M 259.5,342.5 C 258.486,343.674 257.153,344.34 255.5,344.5C 254.833,344.5 254.167,344.5 253.5,344.5C 255.102,342.926 257.102,342.259 259.5,342.5 Z"/></g>
<g><path style="opacity:1" fill="#e94804" d="M 145.5,341.5 C 161.238,343.017 177.072,344.017 193,344.5C 199.648,343.806 206.814,343.473 214.5,343.5C 214.5,343.833 214.5,344.167 214.5,344.5C 210.774,344.59 207.107,345.59 203.5,347.5C 188.833,347.5 174.167,347.5 159.5,347.5C 157.393,346.532 155.059,346.198 152.5,346.5C 151.833,346.5 151.167,346.5 150.5,346.5C 149.833,345.833 149.167,345.167 148.5,344.5C 147.282,343.839 145.949,343.172 144.5,342.5C 144.624,341.893 144.957,341.56 145.5,341.5 Z"/></g>
<g><path style="opacity:1" fill="#f49e7c" d="M 144.5,344.5 C 145.833,344.5 147.167,344.5 148.5,344.5C 149.167,345.167 149.833,345.833 150.5,346.5C 148.102,346.741 146.102,346.074 144.5,344.5 Z"/></g>
<g><path style="opacity:1" fill="#d63307" d="M 273.5,335.5 C 271.887,336.692 270.22,337.692 268.5,338.5C 265.515,339.326 262.849,340.659 260.5,342.5C 260.167,342.5 259.833,342.5 259.5,342.5C 257.102,342.259 255.102,342.926 253.5,344.5C 250.539,345.323 247.539,345.99 244.5,346.5C 230.848,347.284 217.181,347.618 203.5,347.5C 207.107,345.59 210.774,344.59 214.5,344.5C 234.712,345.614 253.878,341.948 272,333.5C 273.03,333.836 273.53,334.503 273.5,335.5 Z"/></g>
<g><path style="opacity:1" fill="#f8c8b3" d="M 253.5,344.5 C 254.167,344.5 254.833,344.5 255.5,344.5C 252.41,347.054 248.744,348.054 244.5,347.5C 244.5,347.167 244.5,346.833 244.5,346.5C 247.539,345.99 250.539,345.323 253.5,344.5 Z"/></g>
<g><path style="opacity:1" fill="#ffc971" d="M 74.5,346.5 C 76.5439,347.508 78.5439,348.508 80.5,349.5C 77.6874,349.975 75.6874,348.975 74.5,346.5 Z"/></g>
<g><path style="opacity:1" fill="#fea314" d="M 62.5,299.5 C 63.5862,299.62 64.2528,300.287 64.5,301.5C 58.4554,317.968 62.1221,332.134 75.5,344C 92.2915,351.94 107.291,349.44 120.5,336.5C 121.386,337.325 121.719,338.325 121.5,339.5C 119.793,340.873 118.46,342.539 117.5,344.5C 114.299,345.931 111.299,347.597 108.5,349.5C 107.167,349.833 105.833,350.167 104.5,350.5C 96.5,350.5 88.5,350.5 80.5,350.5C 80.5,350.167 80.5,349.833 80.5,349.5C 78.5439,348.508 76.5439,347.508 74.5,346.5C 71.2327,344.573 68.2327,342.239 65.5,339.5C 63.7785,335.923 61.7785,332.59 59.5,329.5C 59.5,329.167 59.5,328.833 59.5,328.5C 58.1667,320.167 58.1667,311.833 59.5,303.5C 59.5,303.167 59.5,302.833 59.5,302.5C 60.2719,301.306 61.2719,300.306 62.5,299.5 Z"/></g>
<g><path style="opacity:1" fill="#ffe3b1" d="M 117.5,344.5 C 115.222,347.472 112.222,349.139 108.5,349.5C 111.299,347.597 114.299,345.931 117.5,344.5 Z"/></g>
<g><path style="opacity:1" fill="#f7b295" d="M 152.5,346.5 C 155.059,346.198 157.393,346.532 159.5,347.5C 159.5,347.833 159.5,348.167 159.5,348.5C 157.473,348.662 155.473,348.495 153.5,348C 152.944,347.617 152.611,347.117 152.5,346.5 Z"/></g>
<g><path style="opacity:1" fill="#e56131" d="M 244.5,346.5 C 244.5,346.833 244.5,347.167 244.5,347.5C 243.5,347.5 242.5,347.5 241.5,347.5C 214.188,348.456 186.855,348.79 159.5,348.5C 159.5,348.167 159.5,347.833 159.5,347.5C 174.167,347.5 188.833,347.5 203.5,347.5C 217.181,347.618 230.848,347.284 244.5,346.5 Z"/></g>
<g><path style="opacity:1" fill="#f2b097" d="M 241.5,347.5 C 240.391,348.29 239.058,348.79 237.5,349C 211.33,349.83 185.33,349.663 159.5,348.5C 186.855,348.79 214.188,348.456 241.5,347.5 Z"/></g>
<g><path style="opacity:1" fill="#ffbb4f" d="M 80.5,350.5 C 88.5,350.5 96.5,350.5 104.5,350.5C 104.5,350.833 104.5,351.167 104.5,351.5C 97.8279,352.774 91.1613,352.774 84.5,351.5C 82.901,351.768 81.5676,351.434 80.5,350.5 Z"/></g>
<g><path style="opacity:1" fill="#fedea7" d="M 108.5,349.5 C 107.713,351.104 106.38,351.771 104.5,351.5C 104.5,351.167 104.5,350.833 104.5,350.5C 105.833,350.167 107.167,349.833 108.5,349.5 Z"/></g>
<g><path style="opacity:1" fill="#fee2b1" d="M 84.5,351.5 C 91.1613,352.774 97.8279,352.774 104.5,351.5C 101.305,353.03 97.8048,353.696 94,353.5C 91.5,353.333 89,353.167 86.5,353C 85.5842,352.722 84.9175,352.222 84.5,351.5 Z"/></g>
</svg>
